<mxfile host="Electron" agent="Mozilla/5.0 (Windows NT 10.0; Win64; x64) AppleWebKit/537.36 (KHTML, like Gecko) draw.io/24.7.17 Chrome/128.0.6613.36 Electron/32.0.1 Safari/537.36" version="24.7.17">
  <diagram id="C5RBs43oDa-KdzZeNtuy" name="Page-1">
    <mxGraphModel dx="2603" dy="2490" grid="1" gridSize="10" guides="1" tooltips="1" connect="1" arrows="1" fold="1" page="1" pageScale="1" pageWidth="1169" pageHeight="827" math="0" shadow="0">
      <root>
        <mxCell id="WIyWlLk6GJQsqaUBKTNV-0" />
        <mxCell id="WIyWlLk6GJQsqaUBKTNV-1" parent="WIyWlLk6GJQsqaUBKTNV-0" />
        <mxCell id="VUGmqbDt3npdPbvQBTc1-0" value="&lt;p style=&quot;margin:0px;margin-top:4px;text-align:center;&quot;&gt;&lt;b&gt;Class DeepSpeedEngine(nn.module)&lt;/b&gt;&lt;/p&gt;&lt;hr size=&quot;1&quot; style=&quot;border-style:solid;&quot;&gt;&lt;p style=&quot;margin:0px;margin-left:4px;&quot;&gt;+ self.optimizer&lt;/p&gt;&lt;p style=&quot;margin:0px;margin-left:4px;&quot;&gt;+ self.module&lt;/p&gt;&lt;p style=&quot;margin:0px;margin-left:4px;&quot;&gt;+ self.pipeline_parallelism&lt;/p&gt;&lt;p style=&quot;margin:0px;margin-left:4px;&quot;&gt;+ self.flatten = _flatten_dense_tensors&lt;/p&gt;&lt;p style=&quot;margin:0px;margin-left:4px;&quot;&gt;+ self.unflatten = _unflatten_dense_tensors&lt;/p&gt;&lt;hr size=&quot;1&quot; style=&quot;border-style:solid;&quot;&gt;&lt;p style=&quot;margin:0px;margin-left:4px;&quot;&gt;+ forward()&lt;/p&gt;&lt;p style=&quot;margin:0px;margin-left:4px;&quot;&gt;+ backward()&lt;/p&gt;&lt;p style=&quot;margin:0px;margin-left:4px;&quot;&gt;+ step()&lt;/p&gt;" style="verticalAlign=top;align=left;overflow=fill;html=1;whiteSpace=wrap;" parent="WIyWlLk6GJQsqaUBKTNV-1" vertex="1">
          <mxGeometry x="120" y="140" width="260" height="180" as="geometry" />
        </mxCell>
        <mxCell id="VUGmqbDt3npdPbvQBTc1-1" value="&lt;p style=&quot;margin:0px;margin-top:4px;text-align:center;&quot;&gt;&lt;b&gt;Class PipelineEngine(DeepSpeedEngine)&lt;/b&gt;&lt;/p&gt;&lt;hr size=&quot;1&quot; style=&quot;border-style:solid;&quot;&gt;&lt;p style=&quot;margin:0px;margin-left:4px;&quot;&gt;+ self.using_bf16_optimizer&lt;/p&gt;&lt;p style=&quot;margin:0px;margin-left:4px;&quot;&gt;+ self.mocro_batch_size&lt;/p&gt;&lt;p style=&quot;margin:0px;margin-left:4px;&quot;&gt;+ self.micro_batches&amp;nbsp; # micro batch 的个数&lt;/p&gt;&lt;p style=&quot;margin:0px;margin-left:4px;&quot;&gt;+ self.grid&lt;/p&gt;&lt;p style=&quot;margin:0px;margin-left:4px;&quot;&gt;+ self.num_stages; self.stage_id;&lt;/p&gt;&lt;p style=&quot;margin:0px;margin-left:4px;&quot;&gt;+ self.prev_stage;self.next_stage;&lt;/p&gt;&lt;p style=&quot;margin:0px;margin-left:4px;&quot;&gt;&lt;font color=&quot;#ff0000&quot;&gt;+ self.pipe_buffers = {&lt;/font&gt;&lt;/p&gt;&lt;p style=&quot;margin:0px;margin-left:4px;&quot;&gt;&lt;font color=&quot;#ff0000&quot;&gt;&amp;nbsp; &amp;nbsp; &amp;nbsp; &amp;nbsp; &#39;input&#39; : [], &#39;label&#39; : [],&lt;/font&gt;&lt;/p&gt;&lt;p style=&quot;margin:0px;margin-left:4px;&quot;&gt;&lt;font color=&quot;#ff0000&quot;&gt;&amp;nbsp; &amp;nbsp; &amp;nbsp; &amp;nbsp; &#39;outputs&#39; : [], &#39;output_tensors&#39; : []&lt;/font&gt;&lt;/p&gt;&lt;p style=&quot;margin:0px;margin-left:4px;&quot;&gt;&lt;font color=&quot;#ff0000&quot;&gt;&amp;nbsp; &amp;nbsp;}&lt;/font&gt;&lt;/p&gt;&lt;p style=&quot;margin:0px;margin-left:4px;&quot;&gt;+ self.meta_buffer,&lt;/p&gt;&lt;p style=&quot;margin:0px;margin-left:4px;&quot;&gt;+ self.first_output_send;&amp;nbsp;&lt;/p&gt;&lt;p style=&quot;margin:0px;margin-left:4px;&quot;&gt;+ self.first_gradient_send;&lt;/p&gt;&lt;p style=&quot;margin:0px;margin-left:4px;&quot;&gt;+ self.pipe_partition_input_meta_cache;&lt;/p&gt;&lt;p style=&quot;margin:0px;margin-left:4px;&quot;&gt;+ self.pipe_partition_output_meta_cache;&lt;/p&gt;&lt;p style=&quot;margin:0px;margin-left:4px;&quot;&gt;+ self.pipe_partition_grad_meta_cache;&lt;/p&gt;&lt;p style=&quot;margin:0px;margin-left:4px;&quot;&gt;+ self.grad_partition_grad_layer_meta_cache;&lt;/p&gt;&lt;p style=&quot;margin:0px;margin-left:4px;&quot;&gt;+ self.loss; self.total_loss; self.agg_loss;&lt;/p&gt;&lt;p style=&quot;margin:0px;margin-left:4px;&quot;&gt;+ self.dp_group_loss;&lt;/p&gt;&lt;hr size=&quot;1&quot; style=&quot;border-style:solid;&quot;&gt;&lt;p style=&quot;margin:0px;margin-left:4px;&quot;&gt;+ forward/backward/step&amp;nbsp; 都被 disabled了&lt;/p&gt;&lt;p style=&quot;margin:0px;margin-left:4px;&quot;&gt;&lt;font color=&quot;#ff0000&quot;&gt;+ train_batch(self, data_iter = None)&lt;/font&gt;&lt;/p&gt;&lt;p style=&quot;margin:0px;margin-left:4px;&quot;&gt;&lt;font color=&quot;#ff0000&quot;&gt;+ _exec_schedule(self, pipe_schedule)&lt;br&gt;+ _exec_load_micro_batch()&lt;/font&gt;&lt;/p&gt;&lt;p style=&quot;margin:0px;margin-left:4px;&quot;&gt;&lt;font color=&quot;#ff0000&quot;&gt;+ _exec_backward_pass()&lt;/font&gt;&lt;/p&gt;" style="verticalAlign=top;align=left;overflow=fill;html=1;whiteSpace=wrap;" parent="WIyWlLk6GJQsqaUBKTNV-1" vertex="1">
          <mxGeometry x="570" y="130" width="280" height="400" as="geometry" />
        </mxCell>
        <mxCell id="VUGmqbDt3npdPbvQBTc1-4" value="&lt;p style=&quot;margin:0px;margin-top:4px;text-align:center;&quot;&gt;&lt;b&gt;Class ProcessTopology&lt;/b&gt;&lt;/p&gt;&lt;hr size=&quot;1&quot; style=&quot;border-style:solid;&quot;&gt;&lt;p style=&quot;margin:0px;margin-left:4px;&quot;&gt;+ self.axes = axes&lt;/p&gt;&lt;p style=&quot;margin:0px;margin-left:4px;&quot;&gt;+ self.dims = dims&lt;/p&gt;&lt;p style=&quot;margin:0px;margin-left:4px;&quot;&gt;+ self.ProcessCoord&lt;/p&gt;&lt;p style=&quot;margin:0px;margin-left:4px;&quot;&gt;+ self.mapping = {}&lt;/p&gt;&lt;hr size=&quot;1&quot; style=&quot;border-style:solid;&quot;&gt;&lt;p style=&quot;margin:0px;margin-left:4px;&quot;&gt;+ get_rank()&lt;/p&gt;&lt;p style=&quot;margin:0px;margin-left:4px;&quot;&gt;+ get_axis_names()&lt;/p&gt;&lt;p style=&quot;margin:0px;margin-left:4px;&quot;&gt;+ get_rank_repr()&lt;/p&gt;&lt;p style=&quot;margin:0px;margin-left:4px;&quot;&gt;+ get_dim()&lt;/p&gt;&lt;p style=&quot;margin:0px;margin-left:4px;&quot;&gt;+ get_coord()&lt;/p&gt;&lt;p style=&quot;margin:0px;margin-left:4px;&quot;&gt;+ get_axis_comm_lists()&lt;/p&gt;&lt;p style=&quot;margin:0px;margin-left:4px;&quot;&gt;+ filter_match()&lt;/p&gt;&lt;p style=&quot;margin:0px;margin-left:4px;&quot;&gt;+ get_axis_list()&lt;/p&gt;&lt;p style=&quot;margin:0px;margin-left:4px;&quot;&gt;+ world_size()&lt;/p&gt;&lt;p style=&quot;margin:0px;margin-left:4px;&quot;&gt;+ __str__()&lt;/p&gt;" style="verticalAlign=top;align=left;overflow=fill;html=1;whiteSpace=wrap;" parent="WIyWlLk6GJQsqaUBKTNV-1" vertex="1">
          <mxGeometry x="-54" y="-900" width="180" height="250" as="geometry" />
        </mxCell>
        <mxCell id="VUGmqbDt3npdPbvQBTc1-5" value="&lt;p style=&quot;margin:0px;margin-top:4px;text-align:center;&quot;&gt;&lt;b&gt;Class PipelineParallelGrid&lt;/b&gt;&lt;/p&gt;&lt;hr size=&quot;1&quot; style=&quot;border-style:solid;&quot;&gt;&lt;p style=&quot;margin:0px;margin-left:4px;&quot;&gt;+ self._topo&lt;/p&gt;&lt;p style=&quot;margin:0px;margin-left:4px;&quot;&gt;+ self.global_rank&lt;/p&gt;&lt;p style=&quot;margin:0px;margin-left:4px;&quot;&gt;+ self.world_size&lt;/p&gt;&lt;p style=&quot;margin:0px;margin-left:4px;&quot;&gt;+ self.data_parallel_size&lt;/p&gt;&lt;p style=&quot;margin:0px;margin-left:4px;&quot;&gt;+ self.pipe_prallel_size&lt;/p&gt;&lt;p style=&quot;margin:0px;margin-left:4px;&quot;&gt;+ self.model_parallel_size&lt;/p&gt;&lt;p style=&quot;margin:0px;margin-left:4px;&quot;&gt;+ self.slice_parallel_size&lt;/p&gt;&lt;p style=&quot;margin:0px;margin-left:4px;&quot;&gt;+ self.stage_id&lt;/p&gt;&lt;p style=&quot;margin:0px;margin-left:4px;&quot;&gt;+ self.data_parallel_id&lt;/p&gt;&lt;p style=&quot;margin:0px;margin-left:4px;&quot;&gt;+ self.dp_group = []&lt;/p&gt;&lt;p style=&quot;margin:0px;margin-left:4px;&quot;&gt;+ self.dp_groups&lt;/p&gt;&lt;p style=&quot;margin:0px;margin-left:4px;&quot;&gt;+ self.is_first_stage&lt;/p&gt;&lt;p style=&quot;margin:0px;margin-left:4px;&quot;&gt;+ self.is_last_stage&lt;/p&gt;&lt;p style=&quot;margin:0px;margin-left:4px;&quot;&gt;+ self.pp_group = []&lt;/p&gt;&lt;p style=&quot;margin:0px;margin-left:4px;&quot;&gt;+ self.pp_proc_group&lt;/p&gt;&lt;p style=&quot;margin:0px;margin-left:4px;&quot;&gt;+ self.pipe_groups&lt;/p&gt;&lt;p style=&quot;margin:0px;margin-left:4px;&quot;&gt;+ self.mp_group = []&lt;/p&gt;&lt;hr size=&quot;1&quot; style=&quot;border-style:solid;&quot;&gt;&lt;p style=&quot;margin:0px;margin-left:4px;&quot;&gt;+ get_stage_id()&lt;/p&gt;&lt;p style=&quot;margin:0px;margin-left:4px;&quot;&gt;+ get_data_parallel_id()&lt;/p&gt;&lt;p style=&quot;margin:0px;margin-left:4px;&quot;&gt;+ _build_p2p_groups()&lt;/p&gt;&lt;p style=&quot;margin:0px;margin-left:4px;&quot;&gt;+ _is_grid_valid()&lt;/p&gt;&lt;p style=&quot;margin:0px;margin-left:4px;&quot;&gt;+ stage_to_global()&lt;/p&gt;&lt;p style=&quot;margin:0px;margin-left:4px;&quot;&gt;+ topology()&lt;/p&gt;&lt;p style=&quot;margin:0px;margin-left:4px;&quot;&gt;+ get()&lt;/p&gt;" style="verticalAlign=top;align=left;overflow=fill;html=1;whiteSpace=wrap;" parent="WIyWlLk6GJQsqaUBKTNV-1" vertex="1">
          <mxGeometry x="300" y="-900" width="200" height="390" as="geometry" />
        </mxCell>
        <mxCell id="VUGmqbDt3npdPbvQBTc1-6" value="&lt;p style=&quot;margin:0px;margin-top:4px;text-align:center;&quot;&gt;&lt;b&gt;Class PipelineModule(nn.Module)&lt;/b&gt;&lt;/p&gt;&lt;hr size=&quot;1&quot; style=&quot;border-style:solid;&quot;&gt;&lt;p style=&quot;margin:0px;margin-left:4px;&quot;&gt;+ self._topo&lt;/p&gt;&lt;p style=&quot;margin:0px;margin-left:4px;&quot;&gt;+ self._grid&lt;/p&gt;&lt;p style=&quot;margin:0px;margin-left:4px;&quot;&gt;+ self.stage_id&lt;/p&gt;&lt;p style=&quot;margin:0px;margin-left:4px;&quot;&gt;+ self.parts&lt;/p&gt;&lt;p style=&quot;margin:0px;margin-left:4px;&quot;&gt;+ self._layer_specs; self._num_layers&lt;/p&gt;&lt;p style=&quot;margin:0px;margin-left:4px;&quot;&gt;+ self._local_start; self._local_stop;&lt;/p&gt;&lt;p style=&quot;margin:0px;margin-left:4px;&quot;&gt;+ self._partition_layers()&lt;/p&gt;&lt;p style=&quot;margin:0px;margin-left:4px;&quot;&gt;+ self.forward_funcs=[]; self.fwd_map={}&lt;/p&gt;&lt;p style=&quot;margin:0px;margin-left:4px;&quot;&gt;+ self.tied_modules = nn.ModuleDict()&lt;/p&gt;&lt;p style=&quot;margin:0px;margin-left:4px;&quot;&gt;+ self.tied_weight_attrs = {}&lt;/p&gt;&lt;p style=&quot;margin:0px;margin-left:4px;&quot;&gt;+ self._build(); self.to(device)&lt;/p&gt;&lt;p style=&quot;margin:0px;margin-left:4px;&quot;&gt;# communication structrues for tied modules&lt;/p&gt;&lt;p style=&quot;margin:0px;margin-left:4px;&quot;&gt;+ self.tied_comms = _index_tied_modules()&lt;/p&gt;&lt;p style=&quot;margin:0px;margin-left:4px;&quot;&gt;+ self._synchronize_tied_weights()&lt;/p&gt;&lt;hr size=&quot;1&quot; style=&quot;border-style:solid;&quot;&gt;&lt;p style=&quot;margin:0px;margin-left:4px;&quot;&gt;+ _build()&lt;/p&gt;&lt;p style=&quot;margin:0px;margin-left:4px;&quot;&gt;+ _forward()&lt;/p&gt;&lt;p style=&quot;margin:0px;margin-left:4px;&quot;&gt;+ _partition_layers()&lt;/p&gt;&lt;p style=&quot;margin:0px;margin-left:4px;&quot;&gt;+ allreduce_tied_weight_and_groups()&lt;/p&gt;&lt;p style=&quot;margin:0px;margin-left:4px;&quot;&gt;+ _synchroize_tied_modules()&lt;/p&gt;&lt;p style=&quot;margin:0px;margin-left:4px;&quot;&gt;+ partitions()&lt;/p&gt;&lt;p style=&quot;margin:0px;margin-left:4px;&quot;&gt;+ stage_owner()&lt;/p&gt;&lt;p style=&quot;margin:0px;margin-left:4px;&quot;&gt;+ topology()&lt;/p&gt;&lt;p style=&quot;margin:0px;margin-left:4px;&quot;&gt;+ mpu()&lt;/p&gt;&lt;p style=&quot;margin:0px;margin-left:4px;&quot;&gt;+ num_pipeline_stages()&lt;/p&gt;&lt;p style=&quot;margin:0px;margin-left:4px;&quot;&gt;+ save_stage_dict()&lt;/p&gt;&lt;p style=&quot;margin:0px;margin-left:4px;&quot;&gt;+ load_stage_dir()&lt;/p&gt;" style="verticalAlign=top;align=left;overflow=fill;html=1;whiteSpace=wrap;" parent="WIyWlLk6GJQsqaUBKTNV-1" vertex="1">
          <mxGeometry x="100" y="-375" width="300" height="430" as="geometry" />
        </mxCell>
        <mxCell id="VUGmqbDt3npdPbvQBTc1-7" value="1" style="endArrow=open;html=1;endSize=12;startArrow=diamondThin;startSize=14;startFill=0;edgeStyle=orthogonalEdgeStyle;align=left;verticalAlign=bottom;rounded=0;exitX=0.5;exitY=1;exitDx=0;exitDy=0;entryX=0.75;entryY=0;entryDx=0;entryDy=0;" parent="WIyWlLk6GJQsqaUBKTNV-1" source="VUGmqbDt3npdPbvQBTc1-5" target="VUGmqbDt3npdPbvQBTc1-6" edge="1">
          <mxGeometry x="-1" y="3" relative="1" as="geometry">
            <mxPoint x="510" y="-375" as="sourcePoint" />
            <mxPoint x="670" y="-375" as="targetPoint" />
          </mxGeometry>
        </mxCell>
        <mxCell id="VUGmqbDt3npdPbvQBTc1-8" value="&lt;p style=&quot;margin:0px;margin-top:4px;text-align:center;&quot;&gt;&lt;b&gt;Class PipeDataParallelTopology&lt;/b&gt;&lt;/p&gt;&lt;p style=&quot;margin:0px;margin-top:4px;text-align:center;&quot;&gt;&lt;b&gt;(&lt;/b&gt;&lt;b style=&quot;background-color: initial;&quot;&gt;ProcessTopology)&lt;/b&gt;&lt;/p&gt;&lt;hr size=&quot;1&quot; style=&quot;border-style:solid;&quot;&gt;&lt;p style=&quot;margin:0px;margin-left:4px;&quot;&gt;+ super().__init__(&lt;/p&gt;&lt;p style=&quot;margin:0px;margin-left:4px;&quot;&gt;&amp;nbsp; axes = [&#39;pipe&#39;, &#39;data&#39;],&amp;nbsp;&lt;/p&gt;&lt;p style=&quot;margin:0px;margin-left:4px;&quot;&gt;&amp;nbsp; dims = [num_op, num_dp])&lt;/p&gt;" style="verticalAlign=top;align=left;overflow=fill;html=1;whiteSpace=wrap;" parent="WIyWlLk6GJQsqaUBKTNV-1" vertex="1">
          <mxGeometry x="-70" y="-585" width="210" height="100" as="geometry" />
        </mxCell>
        <mxCell id="VUGmqbDt3npdPbvQBTc1-9" value="Extends" style="endArrow=block;endSize=16;endFill=0;html=1;rounded=0;exitX=0.5;exitY=0;exitDx=0;exitDy=0;entryX=0.5;entryY=1;entryDx=0;entryDy=0;" parent="WIyWlLk6GJQsqaUBKTNV-1" source="VUGmqbDt3npdPbvQBTc1-8" target="VUGmqbDt3npdPbvQBTc1-4" edge="1">
          <mxGeometry width="160" relative="1" as="geometry">
            <mxPoint x="90" y="-610" as="sourcePoint" />
            <mxPoint x="250" y="-610" as="targetPoint" />
          </mxGeometry>
        </mxCell>
        <mxCell id="VUGmqbDt3npdPbvQBTc1-10" value="1" style="endArrow=open;html=1;endSize=12;startArrow=diamondThin;startSize=14;startFill=0;edgeStyle=orthogonalEdgeStyle;align=left;verticalAlign=bottom;rounded=0;exitX=0.5;exitY=1;exitDx=0;exitDy=0;entryX=0.25;entryY=0;entryDx=0;entryDy=0;" parent="WIyWlLk6GJQsqaUBKTNV-1" source="VUGmqbDt3npdPbvQBTc1-8" target="VUGmqbDt3npdPbvQBTc1-6" edge="1">
          <mxGeometry x="-1" y="3" relative="1" as="geometry">
            <mxPoint x="110" y="-430" as="sourcePoint" />
            <mxPoint x="270" y="-430" as="targetPoint" />
          </mxGeometry>
        </mxCell>
        <mxCell id="VUGmqbDt3npdPbvQBTc1-11" value="1" style="endArrow=open;html=1;endSize=12;startArrow=diamondThin;startSize=14;startFill=0;edgeStyle=orthogonalEdgeStyle;align=left;verticalAlign=bottom;rounded=0;exitX=0.5;exitY=1;exitDx=0;exitDy=0;entryX=0.5;entryY=0;entryDx=0;entryDy=0;" parent="WIyWlLk6GJQsqaUBKTNV-1" source="VUGmqbDt3npdPbvQBTc1-6" target="VUGmqbDt3npdPbvQBTc1-0" edge="1">
          <mxGeometry x="-1" y="3" relative="1" as="geometry">
            <mxPoint x="240" y="120" as="sourcePoint" />
            <mxPoint x="400" y="120" as="targetPoint" />
          </mxGeometry>
        </mxCell>
        <mxCell id="VUGmqbDt3npdPbvQBTc1-12" value="Extends" style="endArrow=block;endSize=16;endFill=0;html=1;rounded=0;exitX=0;exitY=0.25;exitDx=0;exitDy=0;entryX=1;entryY=0.5;entryDx=0;entryDy=0;" parent="WIyWlLk6GJQsqaUBKTNV-1" source="VUGmqbDt3npdPbvQBTc1-1" target="VUGmqbDt3npdPbvQBTc1-0" edge="1">
          <mxGeometry width="160" relative="1" as="geometry">
            <mxPoint x="350" y="400" as="sourcePoint" />
            <mxPoint x="510" y="400" as="targetPoint" />
          </mxGeometry>
        </mxCell>
        <mxCell id="8T3VJ3hE5S7HyEXLj8gh-0" value="&lt;p style=&quot;margin:0px;margin-top:4px;text-align:center;&quot;&gt;&lt;b&gt;Class TrainSchedule(PipeSchedule)&lt;/b&gt;&lt;/p&gt;&lt;hr size=&quot;1&quot; style=&quot;border-style:solid;&quot;&gt;&lt;p style=&quot;margin:0px;margin-left:4px;&quot;&gt;+ steps() # cmd = []&lt;/p&gt;&lt;p style=&quot;margin:0px;margin-left:4px;&quot;&gt;+ num_pipe_buffers()&lt;/p&gt;&lt;p style=&quot;margin:0px;margin-left:4px;&quot;&gt;+ _step_to_micro_batch()&lt;/p&gt;&lt;p style=&quot;margin:0px;margin-left:4px;&quot;&gt;+ _even_step_forward_id()&lt;/p&gt;&lt;p style=&quot;margin:0px;margin-left:4px;&quot;&gt;+ _odd_step_forward_id()&lt;/p&gt;&lt;p style=&quot;margin:0px;margin-left:4px;&quot;&gt;+ _even_step_backward_id()&lt;/p&gt;&lt;p style=&quot;margin:0px;margin-left:4px;&quot;&gt;+ _odd_step_backard_id()&amp;nbsp;&lt;/p&gt;&lt;p style=&quot;margin:0px;margin-left:4px;&quot;&gt;&lt;br&gt;&lt;/p&gt;" style="verticalAlign=top;align=left;overflow=fill;html=1;whiteSpace=wrap;" vertex="1" parent="WIyWlLk6GJQsqaUBKTNV-1">
          <mxGeometry x="590" y="-80" width="240" height="140" as="geometry" />
        </mxCell>
        <mxCell id="8T3VJ3hE5S7HyEXLj8gh-1" value="Use" style="endArrow=open;endSize=12;dashed=1;html=1;rounded=0;exitX=0.5;exitY=0;exitDx=0;exitDy=0;entryX=0.5;entryY=1;entryDx=0;entryDy=0;" edge="1" parent="WIyWlLk6GJQsqaUBKTNV-1" source="VUGmqbDt3npdPbvQBTc1-1" target="8T3VJ3hE5S7HyEXLj8gh-0">
          <mxGeometry width="160" relative="1" as="geometry">
            <mxPoint x="830" y="60" as="sourcePoint" />
            <mxPoint x="990" y="60" as="targetPoint" />
          </mxGeometry>
        </mxCell>
        <mxCell id="8T3VJ3hE5S7HyEXLj8gh-2" value="&lt;p style=&quot;margin:0px;margin-top:4px;text-align:center;&quot;&gt;&lt;b&gt;Class PipeSchedule&lt;/b&gt;&lt;/p&gt;&lt;hr size=&quot;1&quot; style=&quot;border-style:solid;&quot;&gt;&lt;p style=&quot;margin:0px;margin-left:4px;&quot;&gt;+ self.micro_batches&lt;/p&gt;&lt;p style=&quot;margin:0px;margin-left:4px;&quot;&gt;+ self.stages&lt;/p&gt;&lt;p style=&quot;margin:0px;margin-left:4px;&quot;&gt;+ self.stage_id&lt;/p&gt;&lt;p style=&quot;margin:0px;margin-left:4px;&quot;&gt;+ self.prev_stage&lt;/p&gt;&lt;p style=&quot;margin:0px;margin-left:4px;&quot;&gt;+ self.next_stage&lt;/p&gt;&lt;p style=&quot;margin:0px;margin-left:4px;&quot;&gt;+ self.it&lt;/p&gt;&lt;hr size=&quot;1&quot; style=&quot;border-style:solid;&quot;&gt;&lt;p style=&quot;margin:0px;margin-left:4px;&quot;&gt;+ steps() # abstractmethod&lt;/p&gt;&lt;p style=&quot;margin:0px;margin-left:4px;&quot;&gt;+ num_pipe_buffers()&lt;/p&gt;&lt;p style=&quot;margin:0px;margin-left:4px;&quot;&gt;+ _valid_micro_batch&lt;/p&gt;&lt;p style=&quot;margin:0px;margin-left:4px;&quot;&gt;+ _valid_stage&lt;/p&gt;&lt;p style=&quot;margin:0px;margin-left:4px;&quot;&gt;+ stage(); num_stage()&lt;/p&gt;&lt;p style=&quot;margin:0px;margin-left:4px;&quot;&gt;+ is_firste_stage()&lt;/p&gt;&lt;p style=&quot;margin:0px;margin-left:4px;&quot;&gt;+ is_last_stage();&lt;/p&gt;&lt;p style=&quot;margin:0px;margin-left:4px;&quot;&gt;+ _buffer_idx();&lt;/p&gt;&lt;p style=&quot;margin:0px;margin-left:4px;&quot;&gt;+ __iter__(); __next__()&lt;/p&gt;" style="verticalAlign=top;align=left;overflow=fill;html=1;whiteSpace=wrap;" vertex="1" parent="WIyWlLk6GJQsqaUBKTNV-1">
          <mxGeometry x="630" y="-430" width="160" height="260" as="geometry" />
        </mxCell>
        <mxCell id="8T3VJ3hE5S7HyEXLj8gh-3" value="Extends" style="endArrow=block;endSize=16;endFill=0;html=1;rounded=0;exitX=0.5;exitY=0;exitDx=0;exitDy=0;entryX=0.5;entryY=1;entryDx=0;entryDy=0;" edge="1" parent="WIyWlLk6GJQsqaUBKTNV-1" source="8T3VJ3hE5S7HyEXLj8gh-0" target="8T3VJ3hE5S7HyEXLj8gh-2">
          <mxGeometry width="160" relative="1" as="geometry">
            <mxPoint x="780" y="-150" as="sourcePoint" />
            <mxPoint x="940" y="-150" as="targetPoint" />
          </mxGeometry>
        </mxCell>
        <mxCell id="8T3VJ3hE5S7HyEXLj8gh-4" value="&lt;font color=&quot;#ff0000&quot;&gt;steps 是一个生成器；遍历total_steps,一次next执行一个step_id&lt;/font&gt;" style="rounded=1;whiteSpace=wrap;html=1;" vertex="1" parent="WIyWlLk6GJQsqaUBKTNV-1">
          <mxGeometry x="450" y="-160" width="120" height="60" as="geometry" />
        </mxCell>
        <mxCell id="8T3VJ3hE5S7HyEXLj8gh-8" value="" style="endArrow=none;dashed=1;html=1;dashPattern=1 3;strokeWidth=2;rounded=0;entryX=0.5;entryY=1;entryDx=0;entryDy=0;exitX=0;exitY=0.25;exitDx=0;exitDy=0;" edge="1" parent="WIyWlLk6GJQsqaUBKTNV-1" source="8T3VJ3hE5S7HyEXLj8gh-0" target="8T3VJ3hE5S7HyEXLj8gh-4">
          <mxGeometry width="50" height="50" relative="1" as="geometry">
            <mxPoint x="510" y="10" as="sourcePoint" />
            <mxPoint x="520" y="-40" as="targetPoint" />
          </mxGeometry>
        </mxCell>
        <mxCell id="8T3VJ3hE5S7HyEXLj8gh-9" value="" style="endArrow=none;dashed=1;html=1;dashPattern=1 3;strokeWidth=2;rounded=0;entryX=-0.012;entryY=0.531;entryDx=0;entryDy=0;entryPerimeter=0;exitX=0.5;exitY=0;exitDx=0;exitDy=0;" edge="1" parent="WIyWlLk6GJQsqaUBKTNV-1" source="8T3VJ3hE5S7HyEXLj8gh-4" target="8T3VJ3hE5S7HyEXLj8gh-2">
          <mxGeometry width="50" height="50" relative="1" as="geometry">
            <mxPoint x="550" y="-220" as="sourcePoint" />
            <mxPoint x="600" y="-270" as="targetPoint" />
          </mxGeometry>
        </mxCell>
        <mxCell id="8T3VJ3hE5S7HyEXLj8gh-10" value="" style="shape=image;verticalLabelPosition=bottom;labelBackgroundColor=default;verticalAlign=top;aspect=fixed;imageAspect=0;image=data:image/png,iVBORw0KGgoAAAANSUhEUgAAAcYAAADnCAYAAACE5fYOAAAAAXNSR0IArs4c6QAAAARnQU1BAACxjwv8YQUAAAAJcEhZcwAADsMAAA7DAcdvqGQAAGC2SURBVHhe7b0PkFXFmff/3UQZZrjMH+44kNFhgEEGgRHCH8kYkTe8BbpKIhUTdBfLZBHrrfeHZUyZoKV5CesvWEi9bhJKd39VoFFL3+gkWhiVXWBfdnHQWYKwklFklAGHwQHGucx/YDBufk/36XNPnz7n3HvunXvnDzyfqgv39D3Tp093n/7283T36b8qLy//CxiGYRiGkXxF/c8wDMMwDMHCyDAMwzAaWXKl5mPOI0X47PEmnEIOJq+eiSs/OYjdO/rU72EQcUzFOHWkc2rbH7H/fXUgmFWOW28Zqw6IY4fx1m+71AHDMAzDhCc7wvi1sVj4dyPRIIXREjiYYpYCkSXTsPDqGHY/fRo9KsxG/ja3F/vltQRKUFkcGYZhmDTIniu187xHxDIOCfCcuRGyIG1RFHRh/2+a0DNxKubMUkEMwzAME5LMCqOwFB+5Drf+XTkiBeXWd+UOHXeL+F7u6xpNl0hVFBGcxmemJXqyA5910u8lOSqAYRiGYcKRWWE8eRq7H/8jdr9HtmJnk/z+1rbT9MNp7Bff4+7OzBCJRhJappEoCyPDMAyTGtlzpZ45l31XaiB96DmjvjIMwzBMCmRFGKUlp4iUjBqY8UYXOYiMUV8ZhmEYJgUyKozj/kaMI16HORPpYOJU+X3hXBJJNd64cElmXZs9MZLbgpFwZNgmBwUF4vdUlocwDMMwTIaF8dRvxTjiQTR0WmsN33r8j9h/jH4QSyfE2GNK6xiT01MfI0t0LK40Z5/OKsI4+uWzehZGhmEYJjWy4Eq1rDULy6WZNcvt5Gk0kPCOu0Wf7ZqPObeMRc97jThyUgUxDMMwTEiysMBfLLC/Cp2/OUTClO5bbwTh33wjXLjSfavoeS+d6zEMwzBM1l4JxzAMwzDDk+wt12AYhmGYYQgLI8MwDMNosDAyDMMwjAYLI8MwDMNosDAyDMMwjAYLI8MwDMNoZHS5xs9vPaG+MczFyf+7Z776xjDMxQpbjAzDMAyjwcLIMAzDMBosjAzDMAyjMUhjjD/Bodk/wHF1BHyEeQeWI6qOmARUPIC3b1iAwkO349p9Kiw0VTh65zr8KQeYlNbfX+SEyFvfMca7T+DorUDNHVfhYRWUHcoR/eUdKNX2WYvt3IiWGnWgGHHfalTOHKWOiOZa1D9Wpw6Y4Uy8bLNdpje24f3V5/EvWa/TQxNDGAsxe/ZYHDjQoI5TI53JN+fK3sXuK04MG2E8u+gZ7Cipx5KXf4U8FTagGI23TE9ZoSF0t+NPP/hbHEUDvvn8I7hChQ4pYVT3cUYd2qSdrn51GBTpCKNsQD5G61vXY8kLKoyIrF2DiWXqwKbnEBp+/CYuqMNUkXEWJYlj+V2oWlyAlmefRizLWmjeo59IJ8Mj4jb9zKtEhMrHASZsmgZMGIkNT7yL5RPGD0CHb+jhdqUuXo0HHl6DdbdVqgBmuHB03O3qGzFvDomiH/WY9PLtWPb8IIuihhBCkR7xWdLcgaPTnsHRCvXjkKcbO0gUsX+eSxTjiMb93o2ol59axCLTULm2Wv2YKtXIJxGK1SVuOCNTS6nRPJBlURSWKzXkoMbZvr+dLYguXoPS5eqUkFx46mknf+hYiKs8HkKiNZSI59cAeAAefmge6rqPY/kT3Srk0sEtjDvXY/1LzShbweI4XOgdVYgx1HucNGYOPldhn48bi2sP1WKMOh4u5O3ahkkoxInyKhUytNnwRD0md0/BUxsvVyGJqEPbwV6grAKaJzQ81VHkqq/BlCOnSH3NIiPuW4rSSAuO6Y1zzYtooPuLLr4rvftjhiCXY8ULU9A1oR477lZBlwi+Y4yVt63DmhVlaH5pI9a9Ht6tqrtSY5PrsS9fHVDPetrh6zH+rDrUSOxKvQXHZzyBQyPUIVH4+UP4RvM2dWRhxTFaHQl8rldcg38Zf406sBh/vArT2tRBSMK6Um0XZ5wz/wfL3nhVHSjmPY6t0/QOiOn6FDjuTx3b5fj5t1/FR73rcM2odTh5isLOPIC35wFz6bf3bqjCVXvuwaRGM44OXCvD1aEL81wjTTLNoLDfols/z3N/tjvXxrimr9vS+hsYrkxPXvbVxvPf85sLn/w08nxM8zrcuKveOpBpEnn2KzrPuTf9HMeVStbiKxRmuFBt/Fxj0g1W0eSE+bk9q5eiYuU0nDPdkkHhLtQYZHsCN5uKJ153PS7LapRuXkCd5I1oK9HdnCSE976InkTXkHGXo0Pej3VeYeMraMZSn3hMnOt67k/mE+jvGpFP59jtxNmDr6DxqSZ1JPCOwTr3Z8UfNFyjx+WUUwzFAdcLLN+Znd77k+knS17hxJNimjSXs/feFca1POUbOi8dpEs1OgWPryrGFhWmc8P9T+BHs3LR+/4L+OGm91To8MZ3VmrD6+uwUVmOj94U1OgEIcRMiKKYUFOFm+XnF0DpP+KcOiMssck/A47acdDn+EfouIKEslidICDB200t37TD2nkHDFHM+0f8B4miEELnnNRFMSxCrHaUnaZG2XYT/h+y6P4WW+98APFkiUZ43P64G3HZ8+twbV8l3tHPkUJBDXQviY593h5/S/CKUw3SnXpWWFut/9cQbceFuuxQoo6Ouh5IeOLp2o+T39bctBJKJ513onWdkya6vz+RIEvEvZHAdZCg2Ole0gz86YZXnXN8+Pzb1rjo13Q3LwnZe/hVPB6ZlzkLsEOlKW/XPVa4yhfdNbvMEEUhokIU9XPm4m8M120hpXMdehrVOZRfZ8ooT8x0392JydSsfP6pOk4GiUYZNWxnG+s1EUqG5bKs2kwfJWbCXSmPxeeXSyH6jKLRtMKUKJQtcM7ZvBpR23srGkUpXMpdSZ9j7dNQqeLREdeR4iDPewUtPaWYKN3Apciha5w902Kd6GEUcrRxx7yZd3jj8blecujvNs9Gn0q7sE7zZi517o2IrKX7BwmBujf5iYtCHVpU2DGqi24390avKAi3NwmHEGp5zs4Wz/XCIMuGhCruIqZPM0iQZDzh02S6nP2wriU6WnYclN8Q92Fa8cnzUufhD8cDo89Tfb90CFyuIcTxwWeOYtI9T6YkjufKfkYWnrDYdAtwG8Yf+X9CuILcRI8YAtf2R1ARoSv3FuuYOJd7Ff17AqP080zyisle6UYk0TmZgkThI2qhJx3SG+VXca0QpJwqnLIb4cZf4UaXhVWPca0ddE4JelXI2UW3WBNoTEszThW67U7kvv3SnXqEjq9qUhZQitjC9E2XNUxp97m+EJe4pdXYTHJCNuFoywX6+bQFOENW3Vz7dyJv169I+I2xUOLotFex9QfW550xwqo0LLx9jzjXkbyKr4kZO6PKtA5ECKhc3iPLUlh/ujWat+sRj+VsW+MSka/0n31vNqvGUSl1R/Fvb6sAP2TjqgRKCFtzbWCv3J8mxH6sGrlnD8n71RtYu9F3Gk0hPBQgJmbY59xrW6MkstWlZBm86Rp/7NlJ8UbKMdpsFEUccVFpQl87/VcUTSxodTFv59dlsdD91JGg+l0vKb0uy/rC/ibKD12ElRu5PZZCxyMR4nqa9drcYVwvBHZniKwx3Qq+8NSLrjLIDNUoltfSy5fyu0bUm1Lku8Z+k+Wlwacj0YXjmB3gTt2z6SF8f+X9oazFq29Ygh98dwHm6y7/CXMpbAmWTFDHgqJrcDuF3T5T9wQOHAnXMXZsX49fbO/B7DtXUx8nHGdz6EYuvI8rMiFCwtKbXY9/iX/0JR4Wuc2vkVheg33y93dx3G0qWbQ9h2kXRuPQVCsel8WZacaU4Ixp9QhkA1uIHs3cE5alLQriY7oExfghzux3C0Ugr2Jy81gcHUUCG2/o3ddLjBLZUNfrQMQ1nZTEk6wrS8CseMb4WK1S+A1Bc1l4h05Lq/LtRboICdeuO5/eCX1PGrJcOtLuNJhMjgb12zVcFgA1jkXCkhusMTjL0hMWnGNNKsH2aRRNi7DnMboH3SXnh984qClU6QhMKJTo2tZyWlapTif6dPGqexONVI7Bbmwf6HnOIxHqIOHJOjLvfa5VV48O6izllpSrACYMCYWx8KZH8bObitCw/feoVWEDhhDFqQvQ0fW85v58XlqMbv43psnfHkogfmSxfmDFMa8LOD7eOuc/yhzLc6ARomhZSI4wiFmZ/UG6FW1rT1lxwwqyDr9Jgnum5L8r8bTHO8VYoZNP4pzB5kgsaGQoiKDe+8AirBfHmnQ+4Rv8FvRRQ5s3RhvHslFC0CfcggkJc04a1Lxo3Y+wruPWOk8GygwpDBsk4JM9O/D8a7XYKzwQNp++R2E7sEOPv/0jvEphrx4cnBmxgcIoRPHJeypx+rX1eOTl8BNw8vroRkYUu6yCtFDuz2kt/1sFJMMWPyGQJH6FP1HhbqJHHIHsKFia8rhnUs60YgwqcdIck5JLKGxLy7bOtgVMgNEwXYbS8rGZgp4cKqvuTFhB9RgtfLipuig9WPE44mZThVMlJNW9zYYl6UP8HOv+xjT/NqTVnABZLqlY0InZcooKcHQM37pRBYQmS6KQlASClhJN6G70n10rl4r00O+J3IRSPA1rLNMo685yPw9iRyRr1rEP0o09CoVzDMuwugqFVFDnWvthtU44j3yKuznRsMFFhq8wWqJYhfZtqYmiIO7anKFPtrkFxyenOPnmbBs1Y6PRE29FzbflBDENPSPoHvoOqWM/bkHvSPrv/NGUxz2T0vh/cZUYS5v2eHz5hJzUImZCxoXQK0J+syvFhBrkLMARW2Q9s1gzyxViiYc2scWC0u6ZfJMYO93vaS7Rs4seIMuPLORDQeOlBN2fcJNOOmWf8zEilJdnRk1Rx7alrQ50lIVsjmHGafwVrqEehblO8uyix9NbN/lCAY4ghunf+EIFJKMc0eXTkKcLh9lwmjNGM4rjaqy4r39utQtPHaA7tyfjKJbfhYllvWR5JnC3ivtbLMY5a31mpWaBAAv2whl6+NIa53Sw4iiMu2vNWaMSEujTdO3oYm0CFDHivrs8E136n6Y6dNG13JNo7Dp3CG2puIANNkynVrd7JNV3f8Ss1N89uwnP3T9XhQx/PMs1HFH8OX7yXGqi6CzXMJdZGMsnbDepOtTRl2OYyzDGH38IkXFPoKXTOce9LMTCXNLhXc5BCBftkbDWqEPg8gBjuYLZgLuWBUispQnx5QxiCUJjCXbIpRDOBBTX9eQyhWYciS9psOIwlzdYWL+JmaE37privpZO0mUWfss1xiZY7qGQSx/0N9sY8Xh+F/gsIzHPo/Qu6b3Ff8lMsmsSZvl5l2v4LyGx8rHe9eabRG8GMd8KI/F5W4m7QRVLGaxp9J5lC0o0+71cw5zOL3BNkLGWEOQmmL5vYS41cE/oiKfFMCvNt+P4CopAT5NMc7JlLX5LH8w0OZjl410a4bPswoVxf6JsD1eopRDuvzPvMWhpRKI0+dYniXv5iyc/zToXKi81At7spHMxLtdwC+P1P8UzD8xJSxQFvB8jc7HjfiWctZaxZP88zAq1yP9SIoRIM0OcL/DSln2ojlVh0kODMzt0sHC7Ut/9A57blJ4oMsylx2gseWs88ufsw/trwrpUGWZ4sOEJEsXR41FziYmiwBhjbEDtHhZFhgnNC1dhkhTH09igghhm2HNjG26+RF8gLhikbacYZnjiu+0UwzAXFQnXMTIMwzDMpQYLI8MwDMNosDAyDMMwjEZGxxgZhmEYZrjDFiPDMAzDaLAwMgzDMIwGCyPDMAzDaLAwMgzDMIzGVwsLC9ep7xkkH3MeGYe/1HaiBzmYvHoOqora0NT4pfo9Bb42Fgvvn44ZC67EFPm5DN0y3iHOrHLcuvJK/OXI5zgz5BPLMAzD2GTHYvxarrZXWw4KCoCe1j51HJ7Ikmm49e/K0bPtj3jrcfvTjitXj+XNRxmGYZiskD1Xauf5/ll1ZCnOmRtBz3sHsf99FSbpwv6nTw99i5FhGIYZlmR2HaNwe5KFF2zNncb+x5twSh0lQliLC+f2hjrfOle76rHDeOu3XdZ34dK8Bdi/DZhzy1gKEGkgq/ORqRhH8trwm0M4clI7L/6bhRDm3TuUtavuT1iwjlgLt/FURNR54/7mOsyZqH4y6WzCbl3Uzfwyf2cYhmEGnMyOMfb0oqn2M5zMLcCEUSex+x8+xofdl2HK1ULgDuE/UxgbHHPdRJR+JYZP9vUG7whOCCGqnt6u4v8Mn9R2I/87UzH72j/jpPjbcYV0/bEoLYlRek5h5IJilF6bj89/+xFik8ajcmw3PvmAhM8+j34Xwrf7dxQXpX3Gwgrkd9M9CXUeHcGErxfiwifqWJIj/2ZEy2k5htrzgUiD9bdTrgYJ7/vY+88qTL8XIcTLC3BM+7178nRUL1TpVqcxDMMwA0v2XKlnzmXf8iGLq5Kss1PbdKuyi6zD00BBFOO+poKIU+/YllgEkTMnLCvRh1O6Nfj+KTR0kmZek68CMkUOJn9zLFmjja50nPr3JvQY6WYYhmEGlqwIYyTquDUjJaP6P94YxNiRJHOn8ZlrDJJ4v52EMoIC4TmV9KCTtNKmJxY0Ech9HtCHnjP03xh9MlEmsCYkRebOxK2PXOd8pFtVTzfDMAwz0GRUGIVbUzTwcoxt4lT5XY79FZRjofi+JMc6MQQ9MZLSAiF8Q4AsWb9i/NKZbet83JONGIZhmIEko8J46reiYT8o3Y/CJSkb+WP0g5gMQ9/jk1hC0FMfIzEai8pEYnpaWKJjceUsdWwzq0hOrHFbf+mQg8iYRBZmuvShk/IoEg3fUWAYhmEGhiy4Ui03oUU/hOXkaTSQqAp34xyX8OVjjr2O8WQHPhNjgLeUx2eRyt/F7NNjweOIYRn3NzNRWUDpsAX9pGU5RkpsQbNmpDrX1pCiHcGVVX7i14cj75Bqk1WdihXNMAzDZJ8sbDslxOIqdMplEOKtNzNx5SfakodUkcso9EE375IPc4mEa4mF/PtRalmGvrQCMm2VZ9TSDs91CL/lE67zxHKPRuC7AfdoxmnGF/aaDMMwzIDB+zHauARUhTEMwzCXHNlbrsEwDMMwwxAWRoZhGIbRYFcqwzAMw2iwxcgwDMMwGiyMDMMwDKORUVfqVwquVN8YhmEYZnjCFiPDMAzDaLAwMgzDMIwGCyPDMAzDaAzSGONylN+/BCXqCDiOhk2PQe25zwwhImvXYGLRITT8+M3hs3nyjW14f3UMHz5diRVvq7AsMeK+1aicOUodEc21qH+sTh0olt+FqsWl6oDoGWb5yQRjl23Wy/QLvLRlH654+3oseUEFMVnDEMZCzJ49FgcONKjj1Ehn8k3Owk24dmbbMBHGckR/eQdKffbCiu3ciJYadXARYQqjPC6zfoszpBr6bux4pR4l++dh1sbLVRhhipOkFy3PPo2YoWOhkXEWJI6jeikqVk7DuYGoH+Y9+ol0MlR689ShQz/zKhEDmUdhCVO2ggETRuLuEzh663EceYvFMdu4XamLV+OBh9dg3W2VKoDxRTQ49250fS5GUQxENALxe38FLZiGys13DYG9M0Wvuh6TP61yi2Ic0bg7ZXaseRRKV6af7shUahCbDyRsOEfMKUce5VdbluuHsFyrFgPH4uVSi1jZAlStrVZnhKTuTTTG84eO43U9S6I43Kl50cqfgegYvnAVHt8fxeRbT2CDCmKyg1sYd67H+peaUbaCxZEJSxNiNYdwFqXIX66CBolVa46ievR41Dw0WoUkpmdnf9Jdjpwi9TUBI8ZobtZsQRZX2cxRiO18UduVpY46AXR/JI6lg1wuTObYsnES6rqPY/kT3SqEyQa+Y4yVt63DmhVlaH5pI9a9Ht6tqrtS85dtQeV4dUDNT9PL96O1VR1qJHalzkfJD+9Feb46JHoObsZHu/eqIwsrDt3543O9GWsxb1E8QZLWXavQ9IE6CIVypbYnd1ElHXuSLhjRw69Fju6etc+T7qVydPi6cqpRunkBdWRsS9Xr4j178BU0PtWkjqzfCxsprJWsiLi7zcc9ZrrjBJqbyH/M0UpPruuaVlhUHQm87mYf17SPS8qTl75uPWsMZvrHhgvVxs81Zuaxr0vP794E4epC8jFaMw/Me0tedlb+dFJd0oVRoP0tpV2mBZTewxWJ64Aifr55f/F8e5Py1afuaiQqO+9vOi3a/Tj1va1E/xvtnMDy9XHRqvB4i6Gl23eowEavm+Zz4nPvFuZzYOR3CnkZR7pUe1EXNIZ+5xr8bslVwPFd+P66rSqQSYXL1P8uGl5fB5JEEsc1ePT8g1i/vUP9EgZbzPQJNRS27EfI2fprpLIrY/6yFcC2VdhnC5wUN4o7ttcRNAq7dibZLS+v8hVeScmPcA2JYupCmB7WwyUe2qddD3bVL6NGA1mKiZvvkCJWLxpd+ZCIHj719oUbC6OQIx5S8/mojiKXHrAOeY643lKgZiPq7fPkQ0sP2XJ3g5A38w5UycZko0yXTOfypeius9JkNVTU3Dy7Mf7gynOSWUYyPcC5Vl2IK9BF12lRITLuxavR1+w0CpG1lEZQY3NvkGgQdC9mmny5sRPTyVBsPeXnQvWD0ricGkdq7JoTxWvgacwjVK6i0ZaoRq/M7FwIV/M09V3vIDiiK8tfIMpu5Wr6ojWeRKKyk1ZpT1NgHuaNEWlR8Qv3qqybWjwr70JfnSmqyRBu6DvkvdSLe5F1TtVdu84lKbsLTz2NevElSMAMoovXICrESdYXS/Qnrq0OFhA/ZDpLnWdOhdnp7nmM7keFJRxjFC5UmVYrHXppx1H3Be1asv6sXEPPtX6vIfJS54UCHLn1OK6YQN+zPLnsUiVwuYYQxwefOYpJ9zyJR28qVKHJyVm4gkRRWGy6BbgXrSmKoqBrq2H1fXAY4jAvOt86JnKixfRvG84HiaKgpAARsiLPJTonFUTjsnmN9tHGqehhGEti5nFr7SSJiJRjtDHkIx6GuCVSF8M5+i+3pDz+3UY0YPHxorJC6u12UmNmHfY8Zjy8NY2I0X8yHh3ZqDjpunCmlyIuxAh5VI1iavDPHnwzsQB5oMZd9L4pbmccrQmxH7sb2gv7m6gElNBLlCuyPRYsisQIKjto9xrIhPPIx3gcSDgpQTRAdpmJ3jkJRKAl549szMWYkhhbFTcoevbyWHxUOdjjTvSR43Qy3+1znAZxxH2zZUPfbJe/oKaW4h2FwjmplF0QTehrV1/jCFF04umPO9nlAfCpc6HLLiwir+Plpe6tKJokD3SorooOC8Xjsv6pvHwFqJ9EFquOl3atC0+9KetNdKq7IUiWl25G4vNuYPL0AHfqyxvx/ZX3h7IWr75hCX7w3QWYr3d+J8ylsCVYIoTXpuga3E5ht88MN0wx3Em4jrFj+3r8YnsPZt+5GnafOBk5RXmkaI3ozIQICUvv/i2YF//oSzws+nbvIbEcj0r5+yaUmCcIPtiOpq48lN9pxVM+Q4Wni6sxFB9NBKRotaDLfNBkZdeFQdBLFpT6KiEBpfish7YFfRSp9XBUI1/8XVmFI8A9HU6DLnqmLqF2uzDjGCJkNfIq7bYVSgKWlIiwgJxrSYvHFBjR69XTpLuuJCSeddRZsDsZv1zq28BdeOoA5ZuwrEU8qxENmEuyahwJRVKEReeUW8PBAhnvYI3BSUvPlZfiY7nTLCtPI1HZBeIzDqrXG4HeGcswYcsuLGfP2P4HC2ndpdKxUZ6N2OFMKXUirLw/21hvpK8J3Y1UV1MSdGagSSiMhTc9ip/dVISG7b9HrQobMIQo3lmFyPEd2LdplfrskBajmxo0yd82JxA/slifs+JoOE5RL7LOuWahY3kOPawesWwgxQNNYnys2erZWz1xhXLX5LnEulb2OLOGYQG5x94I3V1lnycmgqif49iWlfgtLhDmLFGrs2BZaI7FZ4rZllNBY1XBBPXeBxQjL+OfFNyDwdZjKXIoM01B8cNxg2eScGXHpEdXbKT6lj6f7NmB51+rxV7ds/DpexS2Azs+VceC9o/wKoW9evDSmPQTKIxCFJ+8pxKnX1uPR14OPwGnr52av/wC5KjjtFHuz6Z3w/o4bPETAkl/Ptn/6eva6ghkZOI3+p9Ok+YOf9fU8gqy4kwLMTGywSPElP9z1MvtOdwiG3FpadgWhLRQyRLamYlesGnRhpt5aWIJdwtOm4IZhL1EQIpnkFtPuGftRtZHzD4diS4cx+y71XEKhBGObBDOHZocy00dXOcSegGUpyCVepk6ScpuoMiidexFdWwrqozyLcfoCu35TYvzuCKl8XQmVXyF0RLFKrRvS00UBXHX5g9/pImOmnyjjkLR2okeavJz465R8205QZQjN5864u2JGuX5GCmGTTtOpjzumZS6enSIh3+xbvnYYxuJ17yZXKA8QNFslM3stFyzwh1bNhtjhYvGbsylEOuCZk3o8HWlJsJON1mg1oOsJhW4zbdQyHSDOkd2+2dbteowECXyiRvpACvo7QJ8mGjcxYcR9y2l+9OEw9NwppmXIYm7GgPcyKGhjsVpyjO/Opd4zJjOkd6G1Opl+gSUncr3fgmm+Rz41rk6tB3slROZXFarnHyjvtuo+DxjvSkgOrLCVV52nxOHXef61ZG9uxOTqVZ+rlt0OmJW6rOb8Lt1y1QAkyqe5RqOKP4cP3kuNVF0lmuYyyyM5RO2m1Qd6ujLMcxlGK27NuPc3HsRPeac414WYmEu6fAu5yCEi3ZrqiPuSixCLNeQs/0068u9fIJINutNoLtJ1fXsePXBenOmZGznK+irdqbph0+3WwjENeT0+Iqm+Gxaef0Qr4hz378Y2zuAnJX6EhM/0VGzOrUkmvko8OSlYtWaBjwyh5o/v2nsyr3rxj0RReI6T6THmkbv5KVNuDxNnl/J8iFzdS5UXgZ2YrQ0qXOSLWtJpey819XLxhu3H+7nQPx9I/Lp75w6pzDrgvZ8uTDPE25vVY6e2clxjDqc8L6IkHnpYC1Lqo5VYVLQel1ertFv3MJ4/U/xzANz0hJFQTqvhGOYzBGi0biESS7SzFDH6vyNQs0dV+FhFcZkHrcr9d0/4LlN6Ykiwww+l2PFC1PQNaEeR/nNIMzFxt0nSBRjOPIWi2K2McYYG1C7h0WRGca8XYxZTwtxbMFLN6owhhn2fEH1mV8gPlAM0rZTDMMwDDM0SbiOkWEYhmEuNVgYGYZhGEaDhZFhGIZhNFgYGYZhGEaDhZFhGIZhNFgYGYZhGEaDhZFhGIZhNAZpHaP5QnB9t38mju97FIce1nsjO73vHR3SWK+Pm/7xPMzamOVdChK8c9PBfGeq972xzHDFLtvsl+mGJ97FzbEBqNMXOYYwFmL27LE4cCC9t9+ks8DfesF32/AQRs8LgS1cu29nkuEqjL4v7B5aDb1oQJZHp+DxVcXYosKyUr6hyjD8i8L7jXmPviKdDFPEHbL2LAxkHoUl9PM5cMKIG9vw/uqPgf0sjv3B7UpdvBoPPLwG626rVAGMH+LhtzeUbTjYiyjlW393J7/4EI2Ank+QG9UOhU1qxYuYl08YjxpdFDUyWb5iL808Ep+2RA1ndRUKI5RfGdlTMwGiw7KyHB3xcnkFLZiGypS3vbI3ILbyR99seSh34AYPO78GoGMoXon41njkzznKr0TsB25h3Lke619qRtkKFsewWHvq9W/ftkuBIbFbvoB61Pel8CLm/pav3FQ6GXIfymxDVgtZ8e79GcUGwrWIGXsGMsOcF65CzacxVN/dhlUqiEkN3zHGytvWYc2KMjS/tBHrXg/vVtVdqe59Eo39GDUSu1LNfR29ey0KvPst+lxvxlrMW+TeuLF11yo0faAOwuDrOrHcJOaeb5792gJcVu496wxXi8/14ufL+GIo9rm2heV68uzJqG2Cae6NJ9Ms91604rVdZeH27NP2mZOuVO9ek95tj5KnSeDd+87HJeXjvvVz68lte6ZE3S5Um1Dl6+/SC9rSKdRWTwH5peOuJ957S1p2Ca4h44a6H3ke4nsZBtYBhXNd8/6c+teMpVr5JdsD0yJ+f751zcHJB6ec5B6iftdLUL7evQ/NuunE462POvr9WXE7Lmefe5d4nwN3+aaQlzbKpdoa+NLxZdj47CIq9xN4Y+VG8HvJ3Vym/nfR8Po6kCSSOK7Bo+cfxPrtHeqXMNhipk+oUTv4b/11Sjvm5y9bAWxbhX22wElxo7hjex1Bo7BrZ1Lf9+VVvsIrERsjkyimLIQhiKwVFZ8qqNZIiQe9DG+i/l77QbMekMq1Ma0xtR8GvXJT2NqlGFHn34hajaMuCpb1Ze04bzZa1m7p51qt8AjFi5qNqLcvLxsjuv5ydwMrdhyv3Gw9mPUiXJ63FNFqdU3ViInfG9XfWQ2F9T2YcuQU0X/tsfi9hUoThYm4hVs2SDRkg6fS5LoXD1/gW1NidHOlvi5UP3zLNxkqjxxEnk5T3+1Gz2w0lat5pTqIb56r6okQ4ntVBsgGns6lpzRs2XWXFFBAJ/qC8rAoKt2pVtmUYuJmKz+deHzqSgjEbvmV4l5k2q17nri22nkOkpUdPQuN9HHlQ/wZ8hJdvAZR6doVz5D1N67rhUKVTTweFUbx9FA8F556GvUyyE9odYQLlT70LfgZUdcSefRjlUaZ32vouXaLddK81Hm7AB/eDUwf9wUd8FhjqgQu1xDi+OAzRzHpnifx6E2FKjQ5OQtXkCgKi023APeiNUVRFHRtNay+Dw5DHOZF51vHRE60mP5tw/kgURRQoxAhK/JconNSQDx8VZutjyVURq+t5kWj91mHrmb6TzU+ghH3LSVRNP+2CbHH/ERRPODiWkJE9R5/C/q0C4uHr8oeL6qOIpcsqz5xXaLnMcNSqGkESYQSVR2RJu1Bb+6gnBuFHGmtUDqqqcGnhzPVBjKylho1YxwtTJpGJGvQBdIV6dxrMOdxxWjgyIeJNzFOWr7JoPK3xyiPiTRpY3DOOJwzTle/UzSdVr7b58Qbu+ULrM6T3viRUJymeL1u6URlF8yFM73qm4NLqGqovCkD0nKDxwVe4H0OwpddSKTA2M9QE/ra6T/9eiGId4ZcVjCVl14GGWLEfbOta+lxU/0R9Savosqd7mR56eJyNNPDlD+lM8CduhVrVt6P74ewFq++YQl+8N0FmC86tjYT5lLYEiyZoI4FRdfgdgq7febw3yQ84TrGju3r8YvtPZh952osUGHJyCnKI0VrRGcmREhYevdvwbz4R1/iYdG3ew+J5XhUyt83ocQ8QfDBdjR15aH8Tiue8hkqPE1kTzreqHXKnn6Fa4zGEjK7cbUaWPWTQo499TShO8SzFhW9dY+ICqwHP2+MsE7KMbqC4ozQ//H2SxMU0bvV0lNlWCsOhgiJHjvdp9VIWlZo7HCIRFODLPIlfv/CnWhOPgiRJmuMT1gw4veASTCy4XauFzjB58Y+T/3xI3n5DhxWx8C+f+cj65OnUUxUdsF4x0FNoUpPYEIRtuxCcvaM6GQ49DxGZZjIje1BeTaaG1PrDKWJzHufa/UcpvuIFGY+v5lQJBTGwpsexc9uKkLD9t+jVoUNGEIU76xC5PgO7Nu0Sn12SIvRTQ2a5G+bE4gfWazPWXE0HKeoF1nnXLPQsTzTxtO7Uy4f6SJ1GlhpOaRJbOcrqvG4iyxfN7K3LxssEi0cwrGDVG5ioog+oUO5fPKkG8ZOU620zrKHYQGZjVPoNNmWlZ0Hfg2omERixSHy2bb4PGL2do5P/UlCUO99QHHXpfgnhQb/Qmsn/VuAHE/HwuviDiTMOSkTsuyY9IjlhB42COKTPTvw/Gu12Cs6RzafvkdhO7DjU3UsaP8Ir1LYqwe7VcDwJVAYhSg+eU8lTr+2Ho+8HH4CTl/7WbLf6QFUx2mj3J9N7ybp7saxxU8IJP35ZP+uZ9dWRyAjE7/R/3TaxBsNy6o6e7A2YY9TClroHqGaPSgsB2NqvdXgEcsrkNtYj579TQA14hFhafR0WGlS7qpMLQcw3a+hZl6apJwmuwEVAhns1pMWgmpkvWI2Ep/TMzt5ehoPblZEITnBgpYi0k3tM7tWLhVJ5gWwxNO0xjJN4rIbKLJoHfsg24GyCk+HNzK11Hl+0+ILlEWpvYuNVMdMKvgKoyWKVWjflpooCuKuzR/+SBMdNflGHYWCGoQeajpz474v8205QZQjN5/qVLs5GUVnPkaKYdOOkymPe3pYfpd0azkNizXuZ7k3LcwZhYK4i9AldGRtisk36sgNWU7PHsJZMcFC/xsxjhQpR1l1ATqEKNbVowPTMLaCfrMbc89YkxrwV0fhscY18mYuiD/IfvcWirTTpDoeCRvpICvocvzbx3SFCZ3YoEKS4ilfb8OZdh6EIe5q9HoLUqMObQd7qezEZBwVJOrbcstqT+RutcaHW3DaZ1Zq5gkqO5XvPiISmroYztF/TsfOv8717FTP2Vq9N0Lnuo4JFV9/liBdoGf2rGgH9LjtOleXigvY4MZOTB9NzeipoIk3YlbqJvzu2TW4W4UwDp7lGo4o/hw/eS41UXSWa5jLLIzlE7abVB3q6MsxzGUYrbs249zcexE95pzjXhZiYS7p8C7nIISLdmtYa1Rhu//UoYVwGfqMnennUcPTcGa2z7R22+2qDs24VDyuWW9yxpoQXeFeE2OO6uHWloPY08n1KfbmFHPhnu2r1pdz2Ocke7WbO83yGq0LKE1iir/6O5nGxMsPBGHS5Cc65tIBMx6Ja6KCRqI3g4QtX6NBFemR0+h9li3I9Pd7uYZZTyz0CTLhys4nr8x8itcvDa1uWQR3Ypw0qTQnWdaSUtn55INzPStN3mUXBq77E2X7JoW565yFeY/282bgqTPaeb71ycJdh81rmXUuXF7q+L7ZyQUv10iEWxiv/ymeeWBOWqIo0NcxMsxQRa5lnDMKNXeEW+R/SRGyU8MMYe4+gaO39qLu6UqseFuFMSnhdqW++wc8tyk9UWSY4cKWjZNQ130cy185Ed6lyjDDAeERufU4uvZPYlHsB8YYYwNq97AoMhc7l2PFqnlSHG9eIxZAM8zFwYZb+QXimWCQtp1iGIZhmKFJwnWMDMMwDHOpwcLIMAzDMBosjAzDMAyjkdExRoZhGIYZ7rDFyDAMwzAaLIwMwzAMo8HCyDAMwzAaPMY42Mwqx623jAU6m7D76dMJ33M5UESWTMPCuRHg2GG89Vtnu2mGYZhLgSxZjPmY80g5xsnvOZi8+josXJLmBk9fG4uFj1yHW+MfO14mVcb9DeXf6rH93KWBYRjm4iY7FqMQs78biYbHm3BKiuRUYNsfsf999XtIbMvllOtvKb7VuWgYItbVcEII45wxQ8cyZRiGGYpkb4yx83z/Gl8S1zkkij3vHTQEtQv7uWFnGIZhskRmLUZpKZYncNWdxn5pRSbHshZ7Q50fHxOz0cfG5BgesH8bMEeM5ck0tONKsmLHkbw2/OYQjpy0rdrDwC0iHNJK/ewasrAmQorz7h198fvrMS1Y+tuIfY50Hc/ElZ+QoKNCS5dx7/bYok2i8Tzj3Hh64lhp0F3MjpXt/U1Hj8vMR+91FGbazfFRO8/j+WwRGB/DMMwQ4quFhYXr1Pf+09OLptrPcDK3ABNGncTuf/gYH3ZfhilXC4E7hP+sFbvyh2PMdRNR+pUYPtnXG7zBKyHcg9XT21X8n+GT2m7kf2cqZl/7Z5wUfzuukK4/FqUlMUrPKYxcUIzSa/Px+W8/QmzSeFSO7cYnHwClFD7u6pH47Dfvo6nwSpRWFqD4xEeoa4lgytwcdIu0j45gwtcLceETuse4wuXIvx3RchpNjV/S8WWU9nEonTQOE/qO4q1/OmqlacEETLlKXEsJw6lOChfpbcNfrh2H4nNtzm8aQqwWLxwjhW7378T5nyFWcRXGn+3EGZmZQoivQOwf7Pu38n/GwivwlyOf0zl9OKnCu6+i+/oKiZgoFxVmpdniQuPnMsxKr35PDlZ6RlCH4n3s/WdxLqX/ukrMWXyZlUfiJDvPF1j5Kc4TaZoyd4xKk4yKYRhmSJI9V+qZc9l3d5IFV0kW3altulXZRdbhaaAginFfU0HEqXdsiyaCyJkTZCXKAzfHnPBIQS8a+mPduCzALnx2jP4bk5vaxJcAd3LPjiYt/X048rTbqu6pj9G9RlCgGXWZIR+VMj2N7uu/1kTXG4srZ6kgiW2Nq6OspYlhGCazZEUYI1Gn+Y+UjOr/eGMQY0dSU3san7nGIIn320ko9Ea4B52klTY9MX/Bc4VnK82pIO+vB5/VJxFo4brUZ+4mdGf3g68JYfdJz8kOfNYpyjrNmccMwzBDiIwKo1wOQA2zGJfDxKnyuxyzKiiXSy5SWbLREyNZKhDCwCREjfcJq/Ktx/9ofX4jLDiGYRgmHTIqjKd+Kxrmg2gg60GMiYlGer9wIQq3In1PZeKF5Xobi8pEYnpaWHWmC4+YVSQn1uhW4rBE3l9i96O0yMlq7pfbNywnhXs8giurjDL5WiGuLKAyax2ANDAMw2SZLLhSc1BAjaRFDiJjgl2XCTlJjT2JamTuTMxxCZ9Yx6gWqSsX3rhb9EX/9LuYMamNF2YMKQy6yzDxjM9+o/Jg3C3TMFkbL40sKY8f97T20r+jELF/TzAz2LLC3WOvqWGNlUbmVmjpycHk79L1OpvQYLq0GYZhhiGZnZUqEbM0R6Jzj5h9aM3QzD/jnd0Yhp4PPsMn3Zdh9i2VmLLgSvX5Eg3/8BnOyDO+xJl9YrZlJeZ8x/69GHjvIHa+flaeYc2QHIHY+yI9+gxSMfPVng1qzUq1Z2FGqq5EaW4nmvaR6FRcgQmlX+CknHHZh5OUnhkLK9S1xKxLMbtVv0frns1ZpnqcYpatnN15x0SKg84dSQFFxSrOAtfMTZEHJ3OvwJxbxbnWPRa3NOI/D6r8PNVJ9z8RVd9S9//1y3DsN0fx569TPrhmz1qzTl3n0qc0ty1eNsIVvlDmY7EU1hGl49R5zoxTb3oo/ScP461nzzizh115rsJ8Z/QyDMMMPfhdqQzDMAyjkb3lGgzDMAwzDGFhZBiGYRgNFkaGYRiG0WBhZBiGYRgNFkaGYRiG0WBhZBiGYRiNjC7X+ErBleobwzAMwwxP2GJkGIZhGA0WRoZhGIbRYGFkGIZhGI1BGmNcjvL7l6BEHQHH0bDpMdjb+jIJqF6KipXTcG7nRrTUqLDBYPldqFpcCvQcQsOP33TekzqYDFaa7j6Bo7cCNXdchYdVUHYoR/SXd6BUe0N8zKcejLhvNSpnil1XFM21qH+sTh0ww5l42Wa7TG9sw/urz+Nfsl6nhyaGMBZi9uyxOHCgQR2nRjqTb3IWbsK1M9uGkTCGa5yyRqAwVqN08wJE6Vu/0iPFpQAtzz6NWKLnbiBFaCimyUY2IB+j9a3rseQFFUZE1q7BxDJ1YNPPdMk4i5LEETavMoB5j+nUO4+I22SxDEPl4wATNk0DJozEhifexfIJ4wegwzf0cLtSF6/GAw+vwbrbKlUA40aID4liO1XKezfGP11TVyNarU4ZLJZXIEqNSUszEJ06AImpedG6/yHUuAx8mrqxg0QR++e5RDGOaNzj9aQWscg0VK5Nt2yqkU8iFKtLfG+RqdQxaD6QZVEUnUNqyKE9BztbEF28BqXL1SkhufDU007+0LEQ14Etw+FFPL8GwAPw8EPzUNd9HMuf6FYhlw5uYdy5HutfakbZChZHX4T4oBctO92Vsuex7PfOkyEbxPYYYodbgLIK3/0Ymcyy4Yl6TO6egqc2Xq5CElGHtoO96ZdNdRS56msw5cgpUl+zyIj7lqI00oJjeuNMnZIGur/o4ru47l00XI4VL0xB14R67LhbBV0i+I4xVt62DmtWlKH5pY1Y93p4t6ruSs1ftgWV49UBzqLp5fvR2qoONRK7Uuej5If3ojxfHRI9Bzfjo9171ZGFFUeeOhL4XG/GWsxbFE+QpHXXKjR9oA7CoFx1oVxGtlvPxnB9SNeJ6HEfrtDOI9H1uMC8rluBOw2WGxUyTP+ufrZRbth4TmlpMt1iLnS3VpL7iqdXWNVGr9a6BjWo974o93b0u7ezB19B41NN8nvm0mTjuJstjPyW+VOOjmffpDi1dPnGR9biK/WA4UK18XONSTdYRZORbsPtGeQqDzW2HJz3ccw64HFZOvWnrUR3c9rlluAa8fwT92OdV9j4Cpqx1CcekwT1VuYT6O8aka+Vn15XLLz1ybk/s+zd6HE55RRDccD1Ast3Zqf3/oz66cSTYpo0l7P33hXms2CWb+i8dJAu1egUPL6qGFtUmM4N9z+BH83KRe/7L+CHm95TocObwMk3tjgefeZBrN/eoUITYwmjLWb6hBoKW/YNdG79Ncy9/BMJY/6yTRj5riZwStxcgibDigOFV1LyI1xzZxXOpiqEHrQHz9OgOHgfEG9jEm/04/Goc6DHqx4cvWH2ayDjld26noxbiK7ecKkHxvUAUFgpXnQ3RPK8MGNU3nuyse6fmkBXHNa95GrXj6xdjZyd2jkqjZ6ORwbSZOcbfBqb+PU00YiHBaVJTrjpRd3TlVjxtgrT8DScPtf3vS9X+Wr1zQ9Vd2A0mm408fe5nreB1xprs27KfIWnHOMEpT1hHbexrhssjKKxd+7Fr475iZUfyc7TRchdD5y884vD+9z71DEZdhdG738xnm5B2LTb+eSX/948sctA64yEzEsXSSaXXYzCGLhco+H1dXjwmaOYdM+TePSmQhWanJyFK0gUhcWmC91etPqIYjK6thpi98FhiMO86HzrmMiJFtO/bTgfJIqCkgJEyIo8l+icUDQh9uON0mUEMV60eQ2qNpvji9Uolg+C3mukv6vzcXG6xLUJ3Y0i3kKMkMeiws6mBspwWflgjSs1xq934YzpsqOHSTwMJLCuh6nGEMUMceGpA4hhFArnlKsQQrmhO/Y71/e4oGsa5ThTbon2dxkispgEj/K7Wbv/C0+9iRbKNHNM1iWCAWlaNY7yuDuKf/MRxTjxOkIfIbhm/ifFqm9yTOnZQ1SDtTE4bRzOGad7Rd6PtHDtc+7VGslq0TF605XnPTsp3kg5RptDnyIOrW72tdN/RdF43fSlLoZz6msco47L58DveklxW/cXqB6dpTqWE/coKDdyeyyJsIRFXE+rB80dxvVCQB2FMmoLRGdUf84uPOUWxcxgtTvu8qX8rhH1phT5rrHfZHlp8OlIasuPY3aAO3XPpofw/ZX3hxLFq29Ygh98dwHm6y7/CXMpbAmWTFDHgqJrcDuF3T5ztAoYWBKuY+zYvh6/2N6D2XeuBvXlQpFTRP3trkZ09luECGHp3b8F8+IffYmHRd/uPSSW41Epf9+EEvMEwQfb0dSVh/I7rXjKZ6jwNHFPGBiF0pXapAM1FiQmIsgG0f7IXloBclJoEEaMoV6rJnj+WJMyzp6hBkdhVXTtYVBpih3O+NMYQB26mqkDU1EVb0h9J4UIC0PPI9tSyThWo3m2sd5oNFVnJFmD78PkqJDLJAhRiAsUNY5FC+geB2sMrhQ5dOG8mXdo+U0faSF7G0W9Pgl6HqN7SGbN+I2DmkKVjsCEwu58ijym+/rl0pTL1E0n+vS6WvcmGqkcU+pIlhVS3ro7g1lD5r3Pterq0UENSDY6mxczCYWx8KZH8bObitCw/feoVWEDhnJ/Ro7vwL5Nq9Rnh7QY3dSgSf62OYH4kcX6nBVHw3GKepF1zjULHcszPerQonrpUWrk9QfR1bOPfwJcFf1BWmJGgycbuwGanRqA2xJRMyp1YVZuN2FFOfljzUwcDhyJpSrhQb33gUVYL+46aX3CN/gt6KP6njdGdPQMlBD0UacoMWHOSQN7VrKwruPWOk8GygxRfP6p+toPPtmzA8+/Vou9wgNh8+l7FLYDO/T42z/CqxT26sHBmREbKIxCFJ+8pxKnX1uPR14OPwGnr/0skE+WkTpOG+X+bHo37BNri58QSPrzyf6tT9dWRyAjE7/R/3SaKHdSxnpopjUjGx8HaYm5LBPrI929tjs102kKg+ypKneqWkrSphelakTNGb7ZwXIF6hasBQl3BVnlabjftpyivxsdw7duVAGhyZIoJCWBoKWEsrJ9ZtdadZF+T1SkstwNayzTKOvOcj8PYkcka9axD/IZN4YvBNVVKKSCOtfaD6t1wnnkU9zNiYYNLjJ8hdESxSq0b0tNFAVx1+YPf6SJjph8ox+HoLUTPfQI5cZdo+bbcoIoR24+PZ/tiSrCfIwUw6YdJ1Ma9xSD1J51WssXyAkGzvoya1q+sOBSXdNl0iOWXlDPt9iOJz5wbhPkIgQuUP4J95nVKASkieLzpFE9zJ4HLGWsBlSIUZQaTE8aPY2GNunDJANpsvOy7D4nDmvZQZri/EIBjpB9O/0bX6iAZJQjulyMc2rCYeaBbUWrw8ziuBortDxIB2sMuRQT9TWZVJcmllFe1iRwt4r7o/p79mBtkuGBDBFgwcox+LTGOR2sOPT5AM6EnTjUJpyma0cXu+chiMk35rrn/qdJDV/MXKrFbdc5o1OaIhumkxXRPZLquz9i8s3vnt2E5+6fq0KGP55ZqY4o/hw/eS41UXSWa5jLLIzlE7abVB3q6MsxzGUYrbs249zcexE95pzjXhZiYS7p8C7nIISLdmvqtUXOHnP1AN0D2Ta+D4pwG6qJNKnOapPIiQzWFHI5e69ZnwVoneKghEa7pkdY9d90zPPkda10+t6XxC8fbLHzn6JvxhXb+Qr6qq0p/p5JKplIk0d4jHSp3935GTwLMNGbQbz1hPDJb3faRXqsafSe2Zm+aTNRsxD9ZuXamPko0PIy0f26MTsyZvnbMyLVocI1sYkILDs9TTLNiWbvygAjPQL/Z1Nglo8+W9tKk8+yCxfG/YmylUuvnNnhNuY9Bi2NSJQm3/okcddhT36adS5UXmoEvNlJ5+JfrnH9T/HMA3PSEkVBOq+EY5jhi7WWsWT/PMwKtcj/UiKESDNDnC/w0pZ9qI5VYdJDgzM7dLBwu1Lf/QOe25SeKDLMpcdoLHlrPPLn7MP7a8K6VBlmeLDhCRLF0eNRc4mJosAYY2xA7R4WRYYJzQtXYZIUx9PYoIIYZthzYxtuvkRfIC4IfPNNOrArlWEYhhnuJFzHyDAMwzCXGiyMDMMwDKPBwsgwDMMwGiyMDMMwDKPBwsgwDMMwGiyMDMMwDKPBwsgwDMMwGsY6xkLMnj0WBw6kt8g//DpG84Xg+m7/zLDAfuem6z2bg8xgpSnJDueZw/v+UfPdo4Kk78tkhi3xss12mcp3pJ7Hv/ACf2Lxo3jh3kk4+tJGrHt9YN6Var3gu22YCGNqLyoeWJy0+TWWofF7ybAfAylCQzFNNgEvWfZ96XM/0yXjNF487yFsXmUA8x7TqXceEbfJYhmGyscBJmyaBkwYiUQvyb/YcbtSd67H+peaUbZiDdbdVqkCGRN9E+JjzWIHf/e2MoOC2vOwRWxzMxAbFNubwg6hxmXg09SNHSSK2D/Pf+cB0bireiI3YRab5+pbNaWE2uw5vr2ZP3JPxOYDWRZFYblSQw5qnO3729mC6OI1KW+1duGpp538oeP4szWU6tUQIp5fA+ABePiheajrPo7lTwzOZsGDiWeMseH1ddjI4hgauVO9a1/BwUE2iO0xxMS+gz6byDKZZ8MT9ZjcPQVPhdpZw9oTM+2yqY4iV30NxtqfM9tY+1i24JjeOFOnRGyOHV3MO+ZfPFyOFS9MQdeEeuy4WwVdIgS+K7XytnVYs6IMR595EOu3d6jQxOiuVPc+icZ+jBqJXanmvo4kRMZeiwLvfos+15uxFvMWuTdubN21Ck0fqINQWO5K1155QXuZ2W49mwDXh9sdpbtlg7ftsf5G34dNT5dPGm1UWuM5paXJdIu50N1aSe8rlXR7x8zC7UFHpJQmG9MV7rdfYzk6nn2T4tTS5RufteUUAvapk2n322+zoslId8i98RLtmRcnOO/jmHXA47J06k9bie7mtMstwTXi+SfuxzpP7K3ZjKU+8ZgkqLcyn8Q+h9ZelXb5efc19NYn5/7Msnfj2Y9RlpO196nf9QLL128fR6N+OvGkmCbN5ey9d4X5LJjlGzovHaRLNToFj68qxhYVpnMx7sf41cLCwnXqu4tYw7/j7a4q3HnPnajqehu1jefVL8H81UihYELM/h4VJWJCzYM4tvcPaNl7BqMWfw9/PrwXX1qnxrlswl9j7LiziO3d7dlNP3/ZQ7hs1//EJ7tEHPTpnYWJ1Ytwee8f0GmLHgne7Oo8EkLtvL3/jF7qnMcRGyN/ewo6SAgPvWGfo8URmjKM/k45cPQddH8ojulBfPBbGDOiBac3/Mn1gEy7vo8q3z/hxBvvoPWNE/hy2S2YPP+/0Lr7hDpLPMT/A+OvEA2FfV4r8lYuwJe7P6Z86sSXV89C8ZSv4cu2fThn/xk9TMV3URoObsPpP4pd+onl/w0TKrpVGk7gL1//JkqL9WsR4oH43iR8QQ/A4f+1ja5F1xv731A6/U/yXi7sFtenT+5EjK34CjXWv8Kn/6jCtov0KD78kxUm7mnRDIw+f9x9nRTSHVl7Fy57Q7sOXfuq66txWa6Vv5lLEyEa7Z/PxeXa/XeUX4eJf/2t+PVQNgVjvn4lfWbQtTeicYO6Nh3Hz7G5+3P8/ZTL0LCzGK/5tCcjFn4TRbmfI2ank64/4a+vxBcf7UKbXW7Tr6X7Gonu/9TySabhCvxZ1jGrjkz+3jcpDVdQ/x3Iq6Dv31GfRUXooPi/Kurbvd+iMLp3saV8QblzzndmOeUg68BYfK7l49n5yzB5mRWPlZ9WHY/SdYojR9Cw+jc4KfO1GuNl/R2Nou9ROX76H2i378NG5d9f2kTaC5F38wyMGT/DG8/N+vVszGdLQ+ZTKYq+U0yia6W9o3wWvjZziquORdbS85RLQiCvZdaTE+hWYWfp+Sj6qvs8/V6+et11KB5/JYopPaIjYteDq66/Nn49T/nafzeuDx1vmG1BVLqIZTx0rd7rvo3Cr/6J4gmfpi//uE+Gtb7xX7iM0nX56Q89+W9da6T2nFB+3/wtTPzeRJy10xQyL3X+tfSv8KMZf8bJ3+fjX1WYzvj5i/GNcZfji1MHsXVviwod3iRcrtGxfT1+sb0Hs+9cDerLhSJn4Qqy8ITFpluAe9G69dce4UtG11bD6vvgMMRhXnS+dUzkRIvp3zacTyRyJQWIkBV5LmUh9EeMpVRtFh/Vc3b1EEkAqGcX26mHNVEP2u3itNxRwmIxznvM6d1deOoAYhiFwjnUYNiIsUSydDr2O62xNa7UGI/nwhnTZUc9U9GLJMvH1SuseTGB9ZE+YdPd85gxQaSmUY4z5ZZof5chIovJSqLec7N2/xeeehMtlGnmmKxrEklAmlaNozzujuLf3lYBfogxRVlP6COsNDP/k0L14cdqzO1Z4bJ3j2/b43DOON0r8n6khWufc6/mgaguJcvgTVeey6GASDlGm0OfIo64pdGEvnb6rygKobuB1MVwTn2N47JY1HPgd72kuK37C1SP3EMYyo3cHos/P/1DXE+rB80dxvVCQJ2hMmoLhDWmP2cXnnrRXe8zgtXuuMuX8rtG1JtS5LvGfpPlpcGnI6ktP47ZAe7UPZsewvdX3h/KWrz6hiX4wXcXYL7u8p8wl8KWYMkEdSwouga3U9jtMwdnL8iEwlh406P42U1FaNj+e9SqsGTkFOWRojWmYY35ICy9+7dgXvyjL/Gw6Nu9h8RyPCrl75tQYp4g+GA7mrryUH6nFU/5DBWeJnbjdKyZDspmuyfeqLEgRzzVR7o3CpCjzh0xZhQ1Gk3oTviA1KGLrpFXURVvkLyTK6xJGWfPOD01q6JrD4NKU+xwxp/GAMKkmxBWnJ5HCdxK/cNqNM821huNJuV/Iwlcsgbfh8lRIZdJEKIQFyhqHIsW0D0O1hhcKXLownkz79Dymz7SreptFPX6JOh5jO5Bd8n54TcOagpVOgITCrvzKfKY7uuXS1MuUzed6NPrat2baKRyTKkjWUZWs9EZzBoy732uVVePDuosZaOzeTETKIxCFJ+8pxKnX1uPR14ehM2LhSjeWYXI8R3Yt2mV+uyQFqObGjTJ3zYnED+yWJ+z4mg4TlEvss65ZqFjeaZDz2NiJt0ossa83V9Xzz7+MSykELh79Gpmoi5w0hIzGjw1hjQgs1MDSJpuOR5lWVFO/lgzE4cDR2KpSnhQ731gEdaLu05an/ANfgv6qKHNGyM6egZKCPpEhzEhYc5JA3tWsrCu49Y6TwbKDFF8/qn62g8+2bMDz79Wi73CA2Hz6XsUtgM79PjbP8KrFPbqwcGZEesrjJYoVqF9W+qi2Nd+Fsgny0gdp41yfza9G/aJtcVPCCT9+WT/1qdrqyOQkYnf6Gc67ZmGmtWo3EnJemjS3RkpTN6rlT0+5ZZUSzLatCyRlpjLMrE+YoZg3J0aMk0ZJUm67Ua0ZWeKPYW0sFyBugVrQcJdQZZ7Gu63Lafo70bH8K0bVUBosiQKSUkgaCmhrGyf2bVWXUziBZHlblhjmUZZd5b7eRA7Ilmzjn2Qz7gxfCGorkIhFdS51n5YrRPOI5/ibk40bHCR4RFGRxR/jp88l7qlGHdt/vBHmujMR8ky/TgErZ3ooUcoN+4aNd+WE0Q5cvPp+WxPVBHmY2Qh/ddxMuVxTxPbP+9YjZZYCgsu0ZouaxyuFBNdLp9yRNeaLiCrIRKNepQaHrc7MMhFSPFT/gn3mdUoBKRp+V3eNKqH2fOApUyidBOeRiPBDL0MpKlHLGMhK6LsPieO+DhvOuL8QgGOUAlO/8YXKiAZVLbLxTinJhxmHthWtDrMLI6rsULLg3SI1119TSbVpYlllJc1Cdyt4v4Wi3HOWm1cPYsEWLBWpzSdcU4Hs2NrzhqVkECfpmtHF7vXOY+47y7Puuf+p0kNX8xcqsVt1zmjU5oiG6aTFdE9kuq7P2JW6u+e3YTn7p+rQoY/7uUa1/8UzzwwJ21RdJZrmMssjOUTtptUHeroyzHMZRituzbj3Nx7ET3mnONeFmJhLunwLucghIt2a6q1xX9KuXcZQsCDItyGrinuVHFd08vdg+IOtmgYU91VQ+o/hV/9jX5NOVVbsxg86VGY5wmLVI0v+d6XxC/tAelWmHHFdr6Cvmprir9nkkom0uQRnjD5ad1D7kFvmhK9GcR3qYlPfrvTLtJjTaP3LFtIWNY2qj4lWq5h5qNAy8tE9+vGLlsbs/zNum3hmthEBJadniaZ5mTLWsz0CIKeJ2/5eJdG+Cy7cGHcnyjbwxWUTrEUwv135j0GLY1IlCbf+iRJ0u6YdS5UXmoEvNlJ52JcrmGsY6zEghuA2j3pjSmm80o4hhm+WGsZS/bPw6xQi/wvJUKINDPE+QIvbdmH6lgVJj00OLNDBwvDldqQtigyzKXHaCx5azzy5+zD+2vCulQZZniw4QkSxdHjUXOJiaIg4XINhmGS8MJVmCTF8TQ2qCCGGfbc2IabL9EXiAsCXwmXDuxKZRiGYYY7bDEyDMMwjAYLI8MwDMNosDAyDMMwjAYLI8MwDMNosDAyDMMwjAYLI8MwDMNoDNJyDfO9p2JTY78d/BkPoV4NNrAkf4WW9QaN6R8PwBtiErw6ziHZ68yY4Yvzqjbz9XOZRrwS8OYYv/XoYsQQxkLMnj0WBw4M3CvhrPeYtg0jYfS+AzLbD6CLIGFU4c57QAeusU8mjPKdotEpeHxVMbaoMG96LfqVl6E6DQP4qjLzHn1FOhl+7wC1yF69G4qvcwubpoETRvs9ouBXAl50uF2pi1fjgYfXYN1tlSqAcSMaKfVwals8dU11vz1/oBHCJPZgFILgpOsAcpb3d7PW/rNqTYP1om1dFDVE42WnWWyVZe5EkAoj5pQn30lAbsNDnYZsb3clLNeV5eh41r6/V9CCaahMeQPdOrRo+SPFVR1ntdEftjQh9uMByp+3izFLvvXoKF5KefsxZijjFsad67H+pWaUrWBx9EVuCuxtVHseG0Q3HFklZTNH+fSOqUFN2TrJMNSjvm9ODEfeCvdaKWs7o/S3lxoxxm+HDQO5FVG2oQ7UYrG90ptavRANdi1ixtZXzDDnhatQ82kM1Xe3YZUKYoY/vmOMlbetw5oVZWh+aSPWvR7eraq7Ut3bQRnbTmkkdqWa21eRCBlbSgm820r5XG/GWsxb5N6fqnXXKjR9oA7CoMavQrlozLEuY/sXuY0MKExuVWOf5+f+9LpuBXYaZDxFyVx0VhxyO6fWBQmv59m2xs/95+sG9W4tJazFR6ZE3S5UG1+3p+U2dLZc8nefBd1zqLzw23bHwNzixyxvmUcVTXSdGIo1N2d8m6AE14iXu7gfeZ7YpsjaasoTj4FzXfP+nPJtxlKt/Hy2+zLrJRG/P99ydXDyIUx9SqPs4nmuxZNimpznxO9ZEpjnmeWbQl7aJN2aaRk2PruIyv0E3li5EQG7NzFDiK8WFhauU9/jxBr+HQ0XZuOWFbegqutt1DaeV78k5q9GCgUTYvb3qCgRE2oexLG9f0DL3jMYtfh7+PPhvfjSOjXOZRP+GmPHnUVs727PpsH5yx7CZbv+Jz7ZJeKgT+8sTKxehMt7/4BOW/RI8GZX55EQauft/Wf09qrfBWL/x29PQQcJ4aE37HO0OMLyYSe+XDQDY6/5JsYuKkLH9o899yMQDdi06/voQfonnHjjHbS+cQJfLrsFk+f/F1p3n7DOWfhNFJWVY+zYZjSs/g1OinMWfR2l0/V4hVDcgrGnqXH5ySsUD8XVVoTRX78Cfz76Dro/LMfoZTMwuv0wTqp4/SEr6eYZGDOe0l7RHU/X2a9/C+PnatejRnPCqH/F4f+1zbrWG/+Fy743F2Vfd9ItG9bvTUIXNSaNG8Q576CjfBaKx/Wh440/aY3dF3jw746gLFaKH/yrzxbVZVMwJn4fVlBk7d+itKAFpzfY8VjpHn3+uHN9QuZd7ueIiXSL9DxwM8Z+h8IKxI9XoJi+i2PxuSxXxC/y8W8xQYRViJ0CRlAeOueMjd+faBT/B8afd+d3yfeWIVfGI65OD81116F4/JV0nXIp7DIfcifiquuvxZdt+/Dl1QsoPzrR9o96fljItBf1Wnk+/VpKTymKPPFUq3SrP1LI647ptO5bhVk45Vv8xV6Vdiq778xAqV52QmSMshOf+HVOfIx2GSbqIuW7Xu/080LVpxBlJ0NUnl8hhMd+XlqRt3IBvtxN54ROUyfObbfCRB6OrRiJ7v/ch3POpQmf54nOnbD4ZowuP4H2P4rNvUPmpU7T5Vhwcwsm9o3D//fOV1WgzlQsvm0iiqjr//Hr7+CgCmWGLoHLNRpeX4cHnzmKSfc8iUdvEtvdhyNn4Qqy8ITFpluAe9G69dcp75bftdWw+j44DHGYF51vHRM50WL6tw3nE4lcSQEiZEWeS1UIPVjjF3KsJzINlZvXoGqzOSZWjWLp2tR7l/bu6RXuzZld1pi14717V/DZZEVQg6H1uN2UIscVoWhkRJrUxxzPkuNTTrrMXchR86JhqVi7gqMoqs6h+KvJOiDrV7eg/DmPK0iDjnyYeMua6GInvXIH+GcDeuVBUJqtMbyNOCbSqo3BOeNMzjhd/U4qB2lNOOfELZrlC8iSMPLb3oV9qjnwacURzwdzN/4AZJ4buCyWGspbygDv9ULg8kqYZUcE7GifNsnqUwhG3LeU8twsd3peHktg9aeJ7/NE9UfUm7yKKne6k+Wli8vRHKOO/JTOAHfqVqxZeT++H8JavPqGJfjBdxdgfpEKEEyYS2FLsGSCOhYUXYPbKez2mZfellADQcJ1jB3b1+MX23sw+87VWKDCkpFTlEeK1pi6NeaHsPTu34J58Y++xMOib/ceEsvxqJS/b0KJeYLgg+1o6spD+Z1WPOUzVHiaXHjqadWo1soxsdKVa1C6XP1YHUUu/ac3+PIj3U0FyEmhvZNjZs2NCYSiBX2uH52JB1K8TdpjrsbGug+9QTKElT7uXcMtIY4d1hqWIG7s85SVH0IU4gK1s1PmZcUgjcGNoA6UuMeJ2v3H88DTKHaiT88GEtBGuodkHQbvOKgpVE3oa6f/AhvhfiBF16qv4r7idTZdktan5Mj86KFOYYgq1V+Cnqeew9RZSlHQmYubhMJYeNOj+NlNRWjY/nvUqrABQ4jinVWIHN+BfZtWqc8OaTG6qUGT/G1zAvEji/U5K46G4xT1IuucaxY6lmd6CEvkFauHX+22zlwNfvwTPK6VHplsRIUoirEX4dJy0iytsHR4O8enrJIQ1HsfUNz3H/8kGrc0uNAqXHJ+naBy6jjSf4ag+BLmnJRxOk4in+3O22B1RC46Yjm+M69T4ZM9O/D8a7XYK55rm0/fo7Ad2PGpOha0f4RXKezVg90qgMkkgcIoRPHJeypx+rX1eOTl8BNw+trPAvnUKKjjtFHuz6Z3k/rsFLb4CYGkP5/s3x3u2uoIZGTiN/qfTpO6GM7Rf7klGWpsTNEzZlVavd1yjE7D8+bGsgbPHqxN2uM3781/NuhIfE7P7OTpaTy4WRGF5AQLWorUNPrPrpVLRZJZ3JZ4nj0jXL7Zo+cxRyAHsyOSjvs1XeS1zOEMIjK1lDKkox917guURaltiY1Ux8xwx1cYLVGsQvu21ERREHdt/vBHmujMR8ky/TgE1Ej1kATkxv1x5ttygihHbj7V83bvrD6H+Rgphk07TqY07ikm1XjcT3Jcihq7OtuiqEPbwV7kzSTrq5+uKkv0pqHYjsdnRqHjHuvvWkrLLZs3xonfnJ1pj7XkzVwQb1y859hcjn/7mFqLCZ3hd7an+xNxOcLhtYiDr5cB4nl5l6fxTA27DizVyoQs8uXTkJdkfDay1rLaT/vMSs08QRasyncfEQlPuLKzluiUYqJrPJzyaq253rP/abqwv4m62nSttdqDYte5+PObBjd2YvpoarJOBS3yF7NSN+F3z67B3SqEGdp4lms4ovhz/OS51ETRWa5hLrMwlk/YblJ1qKMvxzCXYbTu2oxzc+9F9JhzjntZiIW5pMO7nIMQLtqtYa1RB+/D7T8t3LPsQaAN6Mt4jGnr1t+43yDjikdO1rGWCDhLGiz8rudM+1du0mRvDTGnxlN6G87MNpYI2C5XeWBdQ07ZF8sOjPGlRG8G8Z2G75eX1hIOfSmDnEbvs2zBL089yM5FouUa7vuz0SfI+JWTH54ycU3oIPw6Oq4JWQL3/es4afIvXzM//OqIJ01xvPmQ7HpewpadeS3/ZypxmoLzyX2P5nnmtcLlpY7vm51c8HKN4YZbGK//KZ55YE5aoihI55VwzMWNXMs4ZxRq7gi3yP+SIqlIM0Oeu0/g6K29qHu6EiveVmHMsMftSn33D3huU3qiyDB+bNk4CXXdx7H8lRPhXaoMMxwQHpFbj6Nr/yQWxYsMY4yxAbV7WBSZTHI5VqyaJ8Xx5jVfqDCGGf5suJVfIH6xMkjbTjEMwzDM0CThOkaGYRiGudRgYWQYhmEYDRZGhmEYhtFgYWQYhmEYDRZGhmEYhtFgYWQYhmEYDRZGhmEYhtEYpHWM5gvBxW7/+sbGzHAi+btDv8BLW/Zh+scDsBjafP+o592jgmTvy2SGL877VPX322YD8Y7Um2O8wP9ixBDGQsyePRYHDqT39pt0FvhbL/huGybC6Pei4iHSqHpeyj1w6UomjL4vWfZ9iXg/GzMV57mEcYR9AXYGMO/RV6STEfxy7Ow1/AOYR6EJm6aBE8aEL8lnhjVuV+ri1Xjg4TVYd1ulCmD8EA+cvYHtseZMbPnUP4QwVSlBsNNVf+8B5Cw3t+4ZeMRLxJdPGI+agJ0H9LxsONiLKNXBdPNyxJxy5JH4tCVqDOWeiNRp2JnlBl9YrivL0fGsfX+voAXTUOnaXikMYjNsJ3+kuKrjrDb6wxZnM+as58/bxZj11njkzzmKl25UYcxFgVsYd67H+peaUbaCxTEsPTsP4SxGISdbewQmg6ySspmjfHrH1KCmbJ1kGOpR3zcnhiNvhdtZw9qbz2eD35D4b5hsYGz0nB3IyltcirMH39QsdtFg1yIWmYYy3jH/4uGFq1DzaQzVd7dhlQpihj++Y4yVt63DmhVlaH5pI9a9Ht6tqrtS3fskGvsxaiR2pZr7OpIQGXstCrz7Lfpcb8ZazFvk3rixddcqNH2gDkJhubVceyEGue/Msa6Afe/c+zvq7s9g15H1Ny3SdYkwexCquAob7b0T7XR53a2ePfv83H++blArPborVW45NSXqv0+db76Z+eufB0F74yXaMy9OiK2e3GXidcnJPJJ7Clp7Y9puzvj+lwmuIeOGuh95ntjHshH5fvEYONc1788pX7nfYbz8vGXiqZdE/P58y9XByYcw9SmNsvN7DlJMU//2dBSkkJc2yqXa+tb1WOK72SLvxzjc8J2V2vD6OmxUluOjN4mt7lNBiJkQRTGhZhX2yc9LwPUp7uBP5C9bAWyz46DPruOIzCShnKFOEJDgXTuT+uMva+dtMkRRbIxMoiiE0DknVVH0gx4isSs7PTRdRsNpNXiaG62IGhB953D5AIrGQDxw9nlvAottV1sTuht7ycKZbbgWq5FPDcjZg7X0kAbtwO5P3sw7XOmSbmDd3UqNZhneVGkRH8vCqTR2PDfdttLF5+ELfGtKjFqdnIDNW71E1gpxcOdlUkR6Nq+RH9mwivSqY/EpXS5OEoKrwmQjLtzfzjlOuagyEcJl58Gzh5C72I5HQ17HEnF53s6W+I79I0oK6IRO9HkaZYW2qz3EjvKeeKjhNq8XAvF3lWMOqLRT2Zm71QuRofsXQhC/P/rERaHuTTTKMKqvQgFEZ87vPEXS+hSKJM9B6DQ5LlSRh/6IeqDE2o6Dzo1S+VYYVnzSvNR5uwAfdlMzM453j7lYCFyuIcTxwWeOYtI9T6YkjjkLV5CFJyw23QLci9atv0afOgpL11ZD4D44DHGYF51vHRM50WL6tw3nfazRONRQRciKPJfonBQQD5LVqNoPmd6TrEaxdG3qYfTQ1tHDWlZB6bAYcd9S6rWKXq1x3mNOT9rXtbi8gsSjFx37hUVRihyt52s3MvEG3xzPkuNTzvUunCFBixQ659S8aFgqdehqpv/iDTnFX03CQo2T2Uh6OY8rRgNHPqR/EuDkpWgczfwIAaXZbuSOibRqY3DiY6XTGaezGk1xHeecuEWzfAGVCTXQmoUjGubTFG90qtkoWnHE86G5I5RLXea5gctiqaG8pQzwXi8ELq+EWXaEdCP3ok+EZ4Jk9SkEYZ6DTDHiPupkCstPL1+qP6Le5FVUudOdLC9dXI5m6gPmT+kMcKduxZqV9+P7IazFq29Ygh98dwHmiw6vzYS5FLYESyaoY0HRNbidwm6fmfj5YtIj4TrGju3r8YvtPZh952pQnzYUOUV5pGiN6MyECAlL7/4tmBf/6Es8LPp27yGxHI9K+fsmlJgnCD7YjqauPJTfacXjsjjTwO5xy4bYtOiqo8il//QGX36kpVKAHHWuHA/rIatQe0a9WA+k/tBGpgphIsGUf9eCPpeKOL1mXyvOsCwvPPU0nas3SIaw0kd3KdpCHDucMNEWN/Z5ysoPl/Wys1NacmbvfaCwLD1hwfnkgadRNCxCZdkk6zB4x0FNoWpCXzv9F9gI9wMpuo61nI5V6iJpfUpOuOcgM8hrNTd60tdzmDpLKQo6c3GTUBgLb3oUP7upCA3bf49aFTZgCFG8swqR4zs09+cOaTG6qUGT/G1zAvEji/U5K46G4xT1IuucaxY6lmc69DwmXCzU0Cz29u5Nd5X1CR7XCkJO7omUY7S8hOVGdYQpk42oEEUx9qK7tJT4p8PbOT5llYSg3vuA4r7/+CfRuKXBhdZO+tfpBDmk4PoO6R5PDafjJPLZ7rwNVkfkoiOFYYMgPtmzA8+/Vou94rm2+fQ9CtuBHZ+qY0H7R3iVwl492K0CmEwSKIxCFJ+8pxKnX1uPR14OPwGnr/0skE+NgjpOG+X+bHo3qc9OYYufEEj688n+3eGurY5ARiZ+o5/prEObsMx0q7EuhnP0X25J4sYmtNuprh4d1MuX7lThRu1xL0eweru2cPYHyxq0xi4TY96b/2zQkficntnJ09N4cLMiCskJFrQUqWn0n10rl4oks7gt8Tx7JmicLDP0POYI5GB2RNJxv6aLvJY2nGEjvTA9Hf2oc1+gLEptS2ykOmaGO77CaIliFdq3pSaKgrhr84f6ZJv5KFmW4uQbaqR6kEeNsDr2vC0niHLk5lM9b/fO6nOYj5Fi2LTjZMrjniYX9jfJsSXHarTEMtkECmv8sBQTXeOAZLWtNScvWJNwROMVpQf4bGO9+wGOu8f6u5bScsvmjREuXwtzdqa4N+nanbkg3rh4z7G5HP/2MbUWEzqxQYUkZfldMq5EFnHw9TJAPC/v8jSeqWHXAWsyjgWVrZiolWR8NrLWstpP+8xKzTxBFqzKdx8RCU+4skvlOehvmqxn1ZhEY9e5un6Mad7Yiemjqck6FbTIX8xK3YTfPbsGd6sQZmjjWa7hiOLP8ZPnUhNFZ7mGuczCWD5hu0nVoY6+HMNchtG6azPOzb0X0WPOOe5lIRbmkg7vcg5CuGi3hrVGbXyWaxDWAy9ccM74imfZg8A1oC+w3ZfqUE7o8HO3WteVEwcCxnD8rudM+1fX8Vn64cKcGk/pbTgz21gi4E6zvIacsi9mJxppS/RmEN9p+H73b9+7hbienEbvs2xBlkO/l2uYZWKhT5Cx8jrRK/AsPGVilr9Mi9MRkXiWx7jvX8dJk3/5mvkRrk7aePMh2fW8hC0781pBz0GiNAXnk/sezfPMa4XLSx3fNzu54OUaww23MF7/UzzzwJy0RFGgr2NkGIFcyzhnFGruCLfI/5IiqUgzQ567T+Dorb2oe7oSK95WYcywx+1KffcPeG5TeqLIMH5s2TgJdd3HsfyVE+FdqgwzHBAekVuPo2v/JBbFiwxjjLEBtXtYFJlMcjlWrJonxfHmNbwAmrl42HArv0D8YmWQtp1iGIZhmKFJwnWMDMMwDHOpwcLIMAzDMBosjAzDMAyjkdExRoZhGIYZ7rDFyDAMwzAaLIwMwzAMo8HCyDAMwzAaLIwMwzAMEwf4/wGb+JNcGJBO/QAAAABJRU5ErkJggg==;" vertex="1" parent="WIyWlLk6GJQsqaUBKTNV-1">
          <mxGeometry x="940" y="-245.5" width="454" height="231" as="geometry" />
        </mxCell>
        <mxCell id="8T3VJ3hE5S7HyEXLj8gh-11" value="Use" style="endArrow=open;endSize=12;dashed=1;html=1;rounded=0;exitX=1;exitY=0.25;exitDx=0;exitDy=0;entryX=0;entryY=0;entryDx=0;entryDy=0;" edge="1" parent="WIyWlLk6GJQsqaUBKTNV-1" source="8T3VJ3hE5S7HyEXLj8gh-2" target="8T3VJ3hE5S7HyEXLj8gh-10">
          <mxGeometry width="160" relative="1" as="geometry">
            <mxPoint x="860" y="-330" as="sourcePoint" />
            <mxPoint x="1020" y="-330" as="targetPoint" />
          </mxGeometry>
        </mxCell>
        <mxCell id="8T3VJ3hE5S7HyEXLj8gh-12" value="Use" style="endArrow=open;endSize=12;dashed=1;html=1;rounded=0;exitX=0.25;exitY=1;exitDx=0;exitDy=0;entryX=1;entryY=0.25;entryDx=0;entryDy=0;" edge="1" parent="WIyWlLk6GJQsqaUBKTNV-1" source="8T3VJ3hE5S7HyEXLj8gh-10" target="VUGmqbDt3npdPbvQBTc1-1">
          <mxGeometry width="160" relative="1" as="geometry">
            <mxPoint x="1050" y="200" as="sourcePoint" />
            <mxPoint x="1210" y="200" as="targetPoint" />
          </mxGeometry>
        </mxCell>
        <mxCell id="8T3VJ3hE5S7HyEXLj8gh-13" value="self.pipe_buffers" style="text;strokeColor=none;fillColor=none;align=left;verticalAlign=middle;spacingLeft=4;spacingRight=4;overflow=hidden;points=[[0,0.5],[1,0.5]];portConstraint=eastwest;rotatable=0;whiteSpace=wrap;html=1;" vertex="1" parent="WIyWlLk6GJQsqaUBKTNV-1">
          <mxGeometry x="840" y="70" width="100" height="30" as="geometry" />
        </mxCell>
        <mxCell id="8T3VJ3hE5S7HyEXLj8gh-14" value="&lt;p style=&quot;margin:0px;margin-top:4px;text-align:center;&quot;&gt;&lt;b&gt;Class BufferOpInstruction(PipeInstruction)&lt;/b&gt;&lt;/p&gt;&lt;hr size=&quot;1&quot; style=&quot;border-style:solid;&quot;&gt;&lt;p style=&quot;margin:0px;margin-left:4px;&quot;&gt;+ __init__(self, **kwargs):&lt;/p&gt;&lt;p style=&quot;margin:0px;margin-left:4px;&quot;&gt;&amp;nbsp; &amp;nbsp; super().__init__(buffer_id = buffer_id, **kwargs)&lt;/p&gt;" style="verticalAlign=top;align=left;overflow=fill;html=1;whiteSpace=wrap;" vertex="1" parent="WIyWlLk6GJQsqaUBKTNV-1">
          <mxGeometry x="1022" y="-400" width="290" height="70" as="geometry" />
        </mxCell>
        <mxCell id="8T3VJ3hE5S7HyEXLj8gh-15" value="Extends" style="endArrow=block;endSize=16;endFill=0;html=1;rounded=0;exitX=0.5;exitY=0;exitDx=0;exitDy=0;entryX=0.5;entryY=1;entryDx=0;entryDy=0;" edge="1" parent="WIyWlLk6GJQsqaUBKTNV-1" source="8T3VJ3hE5S7HyEXLj8gh-10" target="8T3VJ3hE5S7HyEXLj8gh-14">
          <mxGeometry width="160" relative="1" as="geometry">
            <mxPoint x="1230" y="-300" as="sourcePoint" />
            <mxPoint x="1390" y="-300" as="targetPoint" />
          </mxGeometry>
        </mxCell>
        <mxCell id="8T3VJ3hE5S7HyEXLj8gh-16" value="&lt;p style=&quot;margin:0px;margin-top:4px;text-align:center;&quot;&gt;&lt;b&gt;Class PipeInstruction&lt;/b&gt;&lt;/p&gt;&lt;hr size=&quot;1&quot; style=&quot;border-style:solid;&quot;&gt;&lt;p style=&quot;margin:0px;margin-left:4px;&quot;&gt;+ 执行的指令&lt;/p&gt;&lt;hr size=&quot;1&quot; style=&quot;border-style:solid;&quot;&gt;&lt;p style=&quot;margin:0px;margin-left:4px;&quot;&gt;+ __init__(self, **kwargs):&lt;/p&gt;&lt;p style=&quot;margin:0px;margin-left:4px;&quot;&gt;&amp;nbsp; &amp;nbsp; self.name = self.__class__.__name__&lt;/p&gt;&lt;p style=&quot;margin:0px;margin-left:4px;&quot;&gt;&amp;nbsp; &amp;nbsp; self.kwagrs = kwargs&lt;/p&gt;&lt;p style=&quot;margin:0px;margin-left:4px;&quot;&gt;&amp;nbsp; &amp;nbsp; for key, val in kwargs.items() : setattr(self, key, val)&lt;/p&gt;&lt;p style=&quot;margin:0px;margin-left:4px;&quot;&gt;+ __repr__(self):&lt;/p&gt;&lt;p style=&quot;margin:0px;margin-left:4px;&quot;&gt;&amp;nbsp; &amp;nbsp; call_to_str(self.name, **self.kwargs)&lt;/p&gt;" style="verticalAlign=top;align=left;overflow=fill;html=1;whiteSpace=wrap;" vertex="1" parent="WIyWlLk6GJQsqaUBKTNV-1">
          <mxGeometry x="1015.5" y="-650" width="303" height="150" as="geometry" />
        </mxCell>
        <mxCell id="8T3VJ3hE5S7HyEXLj8gh-17" value="Extends" style="endArrow=block;endSize=16;endFill=0;html=1;rounded=0;exitX=0.5;exitY=0;exitDx=0;exitDy=0;entryX=0.5;entryY=1;entryDx=0;entryDy=0;" edge="1" parent="WIyWlLk6GJQsqaUBKTNV-1" source="8T3VJ3hE5S7HyEXLj8gh-14" target="8T3VJ3hE5S7HyEXLj8gh-16">
          <mxGeometry width="160" relative="1" as="geometry">
            <mxPoint x="1210" y="-440" as="sourcePoint" />
            <mxPoint x="1370" y="-440" as="targetPoint" />
          </mxGeometry>
        </mxCell>
        <mxCell id="8T3VJ3hE5S7HyEXLj8gh-18" value="&lt;p style=&quot;margin:0px;margin-top:4px;text-align:center;&quot;&gt;&lt;b&gt;Class OptimizerStep(PipeInstruction)&lt;/b&gt;&lt;/p&gt;&lt;hr size=&quot;1&quot; style=&quot;border-style:solid;&quot;&gt;&lt;p style=&quot;margin:0px;margin-left:4px;&quot;&gt;+ pass&lt;/p&gt;" style="verticalAlign=top;align=left;overflow=fill;html=1;whiteSpace=wrap;" vertex="1" parent="WIyWlLk6GJQsqaUBKTNV-1">
          <mxGeometry x="730" y="-827" width="230" height="50" as="geometry" />
        </mxCell>
        <mxCell id="8T3VJ3hE5S7HyEXLj8gh-19" value="&lt;p style=&quot;margin:0px;margin-top:4px;text-align:center;&quot;&gt;&lt;b&gt;Class ReduceTiedGrad(PipeInstruction)&lt;/b&gt;&lt;/p&gt;&lt;hr size=&quot;1&quot; style=&quot;border-style:solid;&quot;&gt;&lt;p style=&quot;margin:0px;margin-left:4px;&quot;&gt;+ pass&lt;br&gt;&lt;/p&gt;" style="verticalAlign=top;align=left;overflow=fill;html=1;whiteSpace=wrap;" vertex="1" parent="WIyWlLk6GJQsqaUBKTNV-1">
          <mxGeometry x="1270" y="-827" width="240" height="50" as="geometry" />
        </mxCell>
        <mxCell id="8T3VJ3hE5S7HyEXLj8gh-20" value="&lt;p style=&quot;margin:0px;margin-top:4px;text-align:center;&quot;&gt;&lt;b&gt;Class ReduceGrads(PipeInstruction)&lt;/b&gt;&lt;/p&gt;&lt;hr size=&quot;1&quot; style=&quot;border-style:solid;&quot;&gt;&lt;p style=&quot;margin:0px;margin-left:4px;&quot;&gt;+ pass&lt;/p&gt;" style="verticalAlign=top;align=left;overflow=fill;html=1;whiteSpace=wrap;" vertex="1" parent="WIyWlLk6GJQsqaUBKTNV-1">
          <mxGeometry x="1015.5" y="-827" width="220" height="50" as="geometry" />
        </mxCell>
        <mxCell id="8T3VJ3hE5S7HyEXLj8gh-21" value="Extends" style="endArrow=block;endSize=16;endFill=0;html=1;rounded=0;exitX=0.5;exitY=1;exitDx=0;exitDy=0;entryX=0;entryY=0;entryDx=0;entryDy=0;" edge="1" parent="WIyWlLk6GJQsqaUBKTNV-1" source="8T3VJ3hE5S7HyEXLj8gh-18" target="8T3VJ3hE5S7HyEXLj8gh-16">
          <mxGeometry width="160" relative="1" as="geometry">
            <mxPoint x="870" y="-730" as="sourcePoint" />
            <mxPoint x="1030" y="-730" as="targetPoint" />
          </mxGeometry>
        </mxCell>
        <mxCell id="8T3VJ3hE5S7HyEXLj8gh-24" value="Extends" style="endArrow=block;endSize=16;endFill=0;html=1;rounded=0;exitX=0.5;exitY=1;exitDx=0;exitDy=0;entryX=0.5;entryY=0;entryDx=0;entryDy=0;" edge="1" parent="WIyWlLk6GJQsqaUBKTNV-1" source="8T3VJ3hE5S7HyEXLj8gh-20" target="8T3VJ3hE5S7HyEXLj8gh-16">
          <mxGeometry width="160" relative="1" as="geometry">
            <mxPoint x="1170" y="-720" as="sourcePoint" />
            <mxPoint x="1330" y="-720" as="targetPoint" />
          </mxGeometry>
        </mxCell>
        <mxCell id="8T3VJ3hE5S7HyEXLj8gh-25" value="Extends" style="endArrow=block;endSize=16;endFill=0;html=1;rounded=0;exitX=0.5;exitY=1;exitDx=0;exitDy=0;entryX=1;entryY=0;entryDx=0;entryDy=0;" edge="1" parent="WIyWlLk6GJQsqaUBKTNV-1" source="8T3VJ3hE5S7HyEXLj8gh-19" target="8T3VJ3hE5S7HyEXLj8gh-16">
          <mxGeometry width="160" relative="1" as="geometry">
            <mxPoint x="1350" y="-690" as="sourcePoint" />
            <mxPoint x="1510" y="-690" as="targetPoint" />
          </mxGeometry>
        </mxCell>
        <mxCell id="8T3VJ3hE5S7HyEXLj8gh-26" value="&lt;div style=&quot;background-color: rgb(31, 31, 31); font-family: Consolas, &amp;quot;Courier New&amp;quot;, monospace; font-weight: normal; font-size: 14px; line-height: 19px; white-space: pre;&quot;&gt;&lt;div style=&quot;&quot;&gt;&lt;div style=&quot;color: rgb(204, 204, 204); line-height: 19px;&quot;&gt;&lt;div&gt;&lt;span style=&quot;color: #9cdcfe;&quot;&gt;# stage : 0, 1 两张卡; step : 0, 1, 2, 3, 4, 5&lt;/span&gt;&lt;/div&gt;&lt;div&gt;&lt;span style=&quot;color: #9cdcfe;&quot;&gt;stage_id&lt;/span&gt;: &lt;span style=&quot;color: #b5cea8;&quot;&gt;0&lt;/span&gt;; &lt;span style=&quot;color: #9cdcfe;&quot;&gt;step_id&lt;/span&gt;: &lt;span style=&quot;color: #b5cea8;&quot;&gt;0&lt;/span&gt;; &lt;span style=&quot;color: #9cdcfe;&quot;&gt;cmds&lt;/span&gt; : [&lt;span style=&quot;color: #4ec9b0;&quot;&gt;LoadMicroBatch&lt;/span&gt;(&lt;span style=&quot;color: #9cdcfe;&quot;&gt;buffer_id&lt;/span&gt;&lt;span style=&quot;color: #d4d4d4;&quot;&gt;=&lt;/span&gt;&lt;span style=&quot;color: #b5cea8;&quot;&gt;0&lt;/span&gt;), &lt;span style=&quot;color: #4ec9b0;&quot;&gt;ForwardPass&lt;/span&gt;(&lt;span style=&quot;color: #9cdcfe;&quot;&gt;buffer_id&lt;/span&gt;&lt;span style=&quot;color: #d4d4d4;&quot;&gt;=&lt;/span&gt;&lt;span style=&quot;color: #b5cea8;&quot;&gt;0&lt;/span&gt;)]&lt;/div&gt;&lt;div&gt;&lt;span style=&quot;color: #9cdcfe;&quot;&gt;stage_id&lt;/span&gt;: &lt;span style=&quot;color: #b5cea8;&quot;&gt;0&lt;/span&gt;; &lt;span style=&quot;color: #9cdcfe;&quot;&gt;step_id&lt;/span&gt;: &lt;span style=&quot;color: #b5cea8;&quot;&gt;1&lt;/span&gt;; &lt;span style=&quot;color: #9cdcfe;&quot;&gt;cmds&lt;/span&gt; : [&lt;span style=&quot;color: #4ec9b0;&quot;&gt;SendActivation&lt;/span&gt;(&lt;span style=&quot;color: #9cdcfe;&quot;&gt;buffer_id&lt;/span&gt;&lt;span style=&quot;color: #d4d4d4;&quot;&gt;=&lt;/span&gt;&lt;span style=&quot;color: #b5cea8;&quot;&gt;0&lt;/span&gt;)]&lt;/div&gt;&lt;div&gt;&lt;span style=&quot;color: #9cdcfe;&quot;&gt;stage_id&lt;/span&gt;: &lt;span style=&quot;color: #b5cea8;&quot;&gt;0&lt;/span&gt;; &lt;span style=&quot;color: #9cdcfe;&quot;&gt;step_id&lt;/span&gt;: &lt;span style=&quot;color: #b5cea8;&quot;&gt;2&lt;/span&gt;; &lt;span style=&quot;color: #9cdcfe;&quot;&gt;cmds&lt;/span&gt; : [&lt;span style=&quot;color: #4ec9b0;&quot;&gt;LoadMicroBatch&lt;/span&gt;(&lt;span style=&quot;color: #9cdcfe;&quot;&gt;buffer_id&lt;/span&gt;&lt;span style=&quot;color: #d4d4d4;&quot;&gt;=&lt;/span&gt;&lt;span style=&quot;color: #b5cea8;&quot;&gt;1&lt;/span&gt;), &lt;span style=&quot;color: #4ec9b0;&quot;&gt;ForwardPass&lt;/span&gt;(&lt;span style=&quot;color: #9cdcfe;&quot;&gt;buffer_id&lt;/span&gt;&lt;span style=&quot;color: #d4d4d4;&quot;&gt;=&lt;/span&gt;&lt;span style=&quot;color: #b5cea8;&quot;&gt;1&lt;/span&gt;)]&lt;/div&gt;&lt;div&gt;&lt;span style=&quot;color: #9cdcfe;&quot;&gt;stage_id&lt;/span&gt;: &lt;span style=&quot;color: #b5cea8;&quot;&gt;0&lt;/span&gt;; &lt;span style=&quot;color: #9cdcfe;&quot;&gt;step_id&lt;/span&gt;: &lt;span style=&quot;color: #b5cea8;&quot;&gt;3&lt;/span&gt;; &lt;span style=&quot;color: #9cdcfe;&quot;&gt;cmds&lt;/span&gt; : [&lt;span style=&quot;color: #4ec9b0;&quot;&gt;RecvGrad&lt;/span&gt;(&lt;span style=&quot;color: #9cdcfe;&quot;&gt;buffer_id&lt;/span&gt;&lt;span style=&quot;color: #d4d4d4;&quot;&gt;=&lt;/span&gt;&lt;span style=&quot;color: #b5cea8;&quot;&gt;0&lt;/span&gt;), &lt;span style=&quot;color: #4ec9b0;&quot;&gt;SendActivation&lt;/span&gt;(&lt;span style=&quot;color: #9cdcfe;&quot;&gt;buffer_id&lt;/span&gt;&lt;span style=&quot;color: #d4d4d4;&quot;&gt;=&lt;/span&gt;&lt;span style=&quot;color: #b5cea8;&quot;&gt;1&lt;/span&gt;), &lt;span style=&quot;color: #4ec9b0;&quot;&gt;BackwardPass&lt;/span&gt;(&lt;span style=&quot;color: #9cdcfe;&quot;&gt;buffer_id&lt;/span&gt;&lt;span style=&quot;color: #d4d4d4;&quot;&gt;=&lt;/span&gt;&lt;span style=&quot;color: #b5cea8;&quot;&gt;0&lt;/span&gt;)]&lt;/div&gt;&lt;div&gt;&lt;span style=&quot;color: #9cdcfe;&quot;&gt;stage_id&lt;/span&gt;: &lt;span style=&quot;color: #b5cea8;&quot;&gt;1&lt;/span&gt;; &lt;span style=&quot;color: #9cdcfe;&quot;&gt;step_id&lt;/span&gt;: &lt;span style=&quot;color: #b5cea8;&quot;&gt;0&lt;/span&gt;; &lt;span style=&quot;color: #9cdcfe;&quot;&gt;cmds&lt;/span&gt; : []&lt;/div&gt;&lt;div&gt;&lt;span style=&quot;color: #9cdcfe;&quot;&gt;stage_id&lt;/span&gt;: &lt;span style=&quot;color: #b5cea8;&quot;&gt;1&lt;/span&gt;; &lt;span style=&quot;color: #9cdcfe;&quot;&gt;step_id&lt;/span&gt;: &lt;span style=&quot;color: #b5cea8;&quot;&gt;1&lt;/span&gt;; &lt;span style=&quot;color: #9cdcfe;&quot;&gt;cmds&lt;/span&gt; : [&lt;span style=&quot;color: #4ec9b0;&quot;&gt;RecvActivation&lt;/span&gt;(&lt;span style=&quot;color: #9cdcfe;&quot;&gt;buffer_id&lt;/span&gt;&lt;span style=&quot;color: #d4d4d4;&quot;&gt;=&lt;/span&gt;&lt;span style=&quot;color: #b5cea8;&quot;&gt;0&lt;/span&gt;), &lt;span style=&quot;color: #4ec9b0;&quot;&gt;LoadMicroBatch&lt;/span&gt;(&lt;span style=&quot;color: #9cdcfe;&quot;&gt;buffer_id&lt;/span&gt;&lt;span style=&quot;color: #d4d4d4;&quot;&gt;=&lt;/span&gt;&lt;span style=&quot;color: #b5cea8;&quot;&gt;0&lt;/span&gt;), &lt;span style=&quot;color: #4ec9b0;&quot;&gt;ForwardPass&lt;/span&gt;(&lt;span style=&quot;color: #9cdcfe;&quot;&gt;buffer_id&lt;/span&gt;&lt;span style=&quot;color: #d4d4d4;&quot;&gt;=&lt;/span&gt;&lt;span style=&quot;color: #b5cea8;&quot;&gt;0&lt;/span&gt;)]&lt;/div&gt;&lt;div&gt;&lt;span style=&quot;color: #9cdcfe;&quot;&gt;stage_id&lt;/span&gt;: &lt;span style=&quot;color: #b5cea8;&quot;&gt;1&lt;/span&gt;; &lt;span style=&quot;color: #9cdcfe;&quot;&gt;step_id&lt;/span&gt;: &lt;span style=&quot;color: #b5cea8;&quot;&gt;2&lt;/span&gt;; &lt;span style=&quot;color: #9cdcfe;&quot;&gt;cmds&lt;/span&gt; : [&lt;span style=&quot;color: #4ec9b0;&quot;&gt;BackwardPass&lt;/span&gt;(&lt;span style=&quot;color: #9cdcfe;&quot;&gt;buffer_id&lt;/span&gt;&lt;span style=&quot;color: #d4d4d4;&quot;&gt;=&lt;/span&gt;&lt;span style=&quot;color: #b5cea8;&quot;&gt;0&lt;/span&gt;)]&lt;/div&gt;&lt;div&gt;&lt;span style=&quot;color: #9cdcfe;&quot;&gt;stage_id&lt;/span&gt;: &lt;span style=&quot;color: #b5cea8;&quot;&gt;1&lt;/span&gt;; &lt;span style=&quot;color: #9cdcfe;&quot;&gt;step_id&lt;/span&gt;: &lt;span style=&quot;color: #b5cea8;&quot;&gt;3&lt;/span&gt;; &lt;span style=&quot;color: #9cdcfe;&quot;&gt;cmds&lt;/span&gt; : [&lt;span style=&quot;color: #4ec9b0;&quot;&gt;SendGrad&lt;/span&gt;(&lt;span style=&quot;color: #9cdcfe;&quot;&gt;buffer_id&lt;/span&gt;&lt;span style=&quot;color: #d4d4d4;&quot;&gt;=&lt;/span&gt;&lt;span style=&quot;color: #b5cea8;&quot;&gt;0&lt;/span&gt;), &lt;span style=&quot;color: #4ec9b0;&quot;&gt;RecvActivation&lt;/span&gt;(&lt;span style=&quot;color: #9cdcfe;&quot;&gt;buffer_id&lt;/span&gt;&lt;span style=&quot;color: #d4d4d4;&quot;&gt;=&lt;/span&gt;&lt;span style=&quot;color: #b5cea8;&quot;&gt;1&lt;/span&gt;), &lt;span style=&quot;color: #4ec9b0;&quot;&gt;LoadMicroBatch&lt;/span&gt;(&lt;span style=&quot;color: #9cdcfe;&quot;&gt;buffer_id&lt;/span&gt;&lt;span style=&quot;color: #d4d4d4;&quot;&gt;=&lt;/span&gt;&lt;span style=&quot;color: #b5cea8;&quot;&gt;1&lt;/span&gt;), &lt;span style=&quot;color: #4ec9b0;&quot;&gt;ForwardPass&lt;/span&gt;(&lt;span style=&quot;color: #9cdcfe;&quot;&gt;buffer_id&lt;/span&gt;&lt;span style=&quot;color: #d4d4d4;&quot;&gt;=&lt;/span&gt;&lt;span style=&quot;color: #b5cea8;&quot;&gt;1&lt;/span&gt;)]&lt;/div&gt;&lt;div&gt;&lt;span style=&quot;color: #9cdcfe;&quot;&gt;stage_id&lt;/span&gt;: &lt;span style=&quot;color: #b5cea8;&quot;&gt;1&lt;/span&gt;; &lt;span style=&quot;color: #9cdcfe;&quot;&gt;step_id&lt;/span&gt;: &lt;span style=&quot;color: #b5cea8;&quot;&gt;4&lt;/span&gt;; &lt;span style=&quot;color: #9cdcfe;&quot;&gt;cmds&lt;/span&gt; : [&lt;span style=&quot;color: #4ec9b0;&quot;&gt;BackwardPass&lt;/span&gt;(&lt;span style=&quot;color: #9cdcfe;&quot;&gt;buffer_id&lt;/span&gt;&lt;span style=&quot;color: #d4d4d4;&quot;&gt;=&lt;/span&gt;&lt;span style=&quot;color: #b5cea8;&quot;&gt;1&lt;/span&gt;)]&lt;/div&gt;&lt;div&gt;&lt;span style=&quot;color: #9cdcfe;&quot;&gt;stage_id&lt;/span&gt;: &lt;span style=&quot;color: #b5cea8;&quot;&gt;0&lt;/span&gt;; &lt;span style=&quot;color: #9cdcfe;&quot;&gt;step_id&lt;/span&gt;: &lt;span style=&quot;color: #b5cea8;&quot;&gt;4&lt;/span&gt;; &lt;span style=&quot;color: #9cdcfe;&quot;&gt;cmds&lt;/span&gt; : [&lt;span style=&quot;color: #4ec9b0;&quot;&gt;LoadMicroBatch&lt;/span&gt;(&lt;span style=&quot;color: #9cdcfe;&quot;&gt;buffer_id&lt;/span&gt;&lt;span style=&quot;color: #d4d4d4;&quot;&gt;=&lt;/span&gt;&lt;span style=&quot;color: #b5cea8;&quot;&gt;0&lt;/span&gt;), &lt;span style=&quot;color: #4ec9b0;&quot;&gt;ForwardPass&lt;/span&gt;(&lt;span style=&quot;color: #9cdcfe;&quot;&gt;buffer_id&lt;/span&gt;&lt;span style=&quot;color: #d4d4d4;&quot;&gt;=&lt;/span&gt;&lt;span style=&quot;color: #b5cea8;&quot;&gt;0&lt;/span&gt;)]&lt;/div&gt;&lt;div&gt;&lt;span style=&quot;color: #9cdcfe;&quot;&gt;stage_id&lt;/span&gt;: &lt;span style=&quot;color: #b5cea8;&quot;&gt;1&lt;/span&gt;; &lt;span style=&quot;color: #9cdcfe;&quot;&gt;step_id&lt;/span&gt;: &lt;span style=&quot;color: #b5cea8;&quot;&gt;5&lt;/span&gt;; &lt;span style=&quot;color: #9cdcfe;&quot;&gt;cmds&lt;/span&gt; : [&lt;span style=&quot;color: #4ec9b0;&quot;&gt;SendGrad&lt;/span&gt;(&lt;span style=&quot;color: #9cdcfe;&quot;&gt;buffer_id&lt;/span&gt;&lt;span style=&quot;color: #d4d4d4;&quot;&gt;=&lt;/span&gt;&lt;span style=&quot;color: #b5cea8;&quot;&gt;1&lt;/span&gt;), &lt;span style=&quot;color: #4ec9b0;&quot;&gt;RecActivation&lt;/span&gt;(&lt;span style=&quot;color: #9cdcfe;&quot;&gt;buffer_id&lt;/span&gt;&lt;span style=&quot;color: #d4d4d4;&quot;&gt;=&lt;/span&gt;&lt;span style=&quot;color: #b5cea8;&quot;&gt;0&lt;/span&gt;), &lt;span style=&quot;color: #4ec9b0;&quot;&gt;LoadMicroBatch&lt;/span&gt;(&lt;span style=&quot;color: #9cdcfe;&quot;&gt;buffer_id&lt;/span&gt;&lt;span style=&quot;color: #d4d4d4;&quot;&gt;=&lt;/span&gt;&lt;span style=&quot;color: #b5cea8;&quot;&gt;0&lt;/span&gt;), &lt;span style=&quot;color: #4ec9b0;&quot;&gt;ForwardPass&lt;/span&gt;(&lt;span style=&quot;color: #9cdcfe;&quot;&gt;buffer_id&lt;/span&gt;&lt;span style=&quot;color: #d4d4d4;&quot;&gt;=&lt;/span&gt;&lt;span style=&quot;color: #b5cea8;&quot;&gt;0&lt;/span&gt;)]&lt;/div&gt;&lt;/div&gt;&lt;/div&gt;&lt;/div&gt;" style="text;whiteSpace=wrap;html=1;" vertex="1" parent="WIyWlLk6GJQsqaUBKTNV-1">
          <mxGeometry x="910" y="240" width="1070" height="220" as="geometry" />
        </mxCell>
      </root>
    </mxGraphModel>
  </diagram>
</mxfile>
